<svg xmlns="http://www.w3.org/2000/svg" xmlns:xlink="http://www.w3.org/1999/xlink" width="2000" zoomAndPan="magnify" viewBox="0 0 1500 1499.999933" height="2000" preserveAspectRatio="xMidYMid meet" version="1.0"><defs><g/><clipPath id="37099bc017"><rect x="0" width="422" y="0" height="692"/></clipPath><clipPath id="96322e40eb"><rect x="0" width="465" y="0" height="373"/></clipPath><clipPath id="1aa8882ee2"><rect x="0" width="61" y="0" height="372"/></clipPath><clipPath id="dc545ad4c3"><rect x="0" width="580" y="0" height="373"/></clipPath></defs><g transform="matrix(1, 0, 0, 1, 121, 404)"><g clip-path="url(#37099bc017)"><g fill="#025cd7" fill-opacity="1"><g transform="translate(1.252347, 517.637763)"><g><path d="M 178.234375 -172.03125 L 178.234375 -185.84375 C 194.816406 -185.84375 209.210938 -190.675781 221.421875 -200.34375 C 233.628906 -210.019531 242.492188 -223.144531 248.015625 -239.71875 C 253.546875 -256.300781 254.695312 -274.835938 251.46875 -295.328125 C 248.25 -315.828125 239.5 -337.132812 225.21875 -359.25 C 216.007812 -373.519531 204.722656 -386.179688 191.359375 -397.234375 C 178.003906 -408.296875 164.300781 -416.9375 150.25 -423.15625 C 136.207031 -429.375 122.96875 -432.484375 110.53125 -432.484375 C 94.875 -432.484375 83.59375 -429.832031 76.6875 -424.53125 C 69.78125 -419.238281 65.75 -413.132812 64.59375 -406.21875 C 63.445312 -399.3125 64.023438 -392.863281 66.328125 -386.875 C 69.546875 -378.59375 75.066406 -371.800781 82.890625 -366.5 C 90.722656 -361.207031 99.359375 -355.910156 108.796875 -350.609375 C 118.242188 -345.316406 127.457031 -339.210938 136.4375 -332.296875 C 145.425781 -325.390625 152.796875 -316.296875 158.546875 -305.015625 C 164.304688 -293.734375 167.1875 -279.109375 167.1875 -261.140625 L 167.1875 0 L 15.890625 0 L 15.890625 -323.328125 C 15.890625 -353.265625 21.070312 -377.90625 31.4375 -397.25 C 41.800781 -416.59375 55.15625 -431.789062 71.5 -442.84375 C 87.851562 -453.894531 105.472656 -461.722656 124.359375 -466.328125 C 143.242188 -470.929688 161.203125 -473.234375 178.234375 -473.234375 C 221.535156 -473.234375 260.109375 -467.359375 293.953125 -455.609375 C 327.804688 -443.867188 354.519531 -427.632812 374.09375 -406.90625 C 393.675781 -386.1875 403.46875 -362.238281 403.46875 -335.0625 C 403.46875 -306.050781 394.597656 -279.222656 376.859375 -254.578125 C 359.128906 -229.941406 333.453125 -210.023438 299.828125 -194.828125 C 266.210938 -179.628906 225.679688 -172.03125 178.234375 -172.03125 Z M 178.234375 -172.03125 "/></g></g></g></g></g><g transform="matrix(1, 0, 0, 1, 294, 654)"><g clip-path="url(#96322e40eb)"><g fill="#025cd7" fill-opacity="1"><g transform="translate(2.251844, 267.819674)"><g><path d="M 14.265625 0 L 14.265625 -163.734375 L 89.125 -163.734375 C 100.1875 -163.734375 110.28125 -161.316406 119.40625 -156.484375 C 128.53125 -151.648438 135.78125 -144.941406 141.15625 -136.359375 C 146.539062 -127.785156 149.234375 -117.882812 149.234375 -106.65625 C 149.234375 -96.207031 146.738281 -86.8125 141.75 -78.46875 C 136.757812 -70.132812 130.207031 -63.394531 122.09375 -58.25 L 135.203125 -36.015625 C 135.984375 -34.929688 136.878906 -34.078125 137.890625 -33.453125 C 138.898438 -32.828125 140.265625 -32.515625 141.984375 -32.515625 L 156.484375 -32.515625 L 156.484375 0 L 133.5625 0 C 126.539062 0 120.144531 -1.675781 114.375 -5.03125 C 108.601562 -8.382812 104.082031 -12.789062 100.8125 -18.25 L 83.265625 -49.359375 C 82.179688 -49.359375 81.050781 -49.359375 79.875 -49.359375 C 78.707031 -49.359375 77.5 -49.359375 76.25 -49.359375 L 53.5625 -49.359375 L 53.5625 0 Z M 53.5625 -81.875 L 84.671875 -81.875 C 89.191406 -81.875 93.398438 -82.847656 97.296875 -84.796875 C 101.203125 -86.742188 104.285156 -89.546875 106.546875 -93.203125 C 108.804688 -96.867188 109.9375 -101.273438 109.9375 -106.421875 C 109.9375 -111.566406 108.765625 -115.972656 106.421875 -119.640625 C 104.085938 -123.304688 101.007812 -126.113281 97.1875 -128.0625 C 93.363281 -130.007812 89.191406 -130.984375 84.671875 -130.984375 L 53.5625 -130.984375 Z M 53.5625 -81.875 "/></g></g></g><g fill="#025cd7" fill-opacity="1"><g transform="translate(162.238891, 267.819674)"><g><path d="M 0 0 L 53.09375 -144.78125 C 55.75 -151.957031 60.113281 -157.378906 66.1875 -161.046875 C 72.269531 -164.710938 79.132812 -166.546875 86.78125 -166.546875 C 94.414062 -166.546875 101.273438 -164.789062 107.359375 -161.28125 C 113.441406 -157.769531 117.8125 -152.347656 120.46875 -145.015625 L 173.796875 0 L 131.453125 0 L 121.15625 -31.578125 L 51.6875 -31.578125 L 40.9375 0 Z M 61.75 -64.09375 L 111.109375 -64.09375 L 90.28125 -129.34375 C 89.96875 -130.28125 89.539062 -130.941406 89 -131.328125 C 88.457031 -131.722656 87.796875 -131.921875 87.015625 -131.921875 C 86.234375 -131.921875 85.566406 -131.6875 85.015625 -131.21875 C 84.472656 -130.75 84.125 -130.125 83.96875 -129.34375 Z M 61.75 -64.09375 "/></g></g></g><g fill="#025cd7" fill-opacity="1"><g transform="translate(336.026012, 267.819674)"><g><path d="M 93.796875 0 C 80.390625 0 68.304688 -2.0625 57.546875 -6.1875 C 46.785156 -10.320312 37.660156 -16.132812 30.171875 -23.625 C 22.691406 -31.113281 16.921875 -39.804688 12.859375 -49.703125 C 8.804688 -59.609375 6.78125 -70.332031 6.78125 -81.875 C 6.78125 -93.40625 8.804688 -104.117188 12.859375 -114.015625 C 16.921875 -123.921875 22.734375 -132.617188 30.296875 -140.109375 C 37.859375 -147.597656 46.976562 -153.40625 57.65625 -157.53125 C 68.34375 -161.664062 80.390625 -163.734375 93.796875 -163.734375 L 119.0625 -163.734375 L 119.0625 -130.984375 L 94.734375 -130.984375 C 87.398438 -130.984375 80.734375 -129.734375 74.734375 -127.234375 C 68.734375 -124.742188 63.585938 -121.273438 59.296875 -116.828125 C 55.003906 -112.390625 51.726562 -107.207031 49.46875 -101.28125 C 47.207031 -95.351562 46.078125 -88.882812 46.078125 -81.875 C 46.078125 -74.851562 47.207031 -68.378906 49.46875 -62.453125 C 51.726562 -56.523438 55.003906 -51.335938 59.296875 -46.890625 C 63.585938 -42.453125 68.734375 -38.984375 74.734375 -36.484375 C 80.734375 -33.992188 87.398438 -32.75 94.734375 -32.75 L 119.0625 -32.75 L 119.0625 0 Z M 93.796875 0 "/></g></g></g></g></g><g transform="matrix(1, 0, 0, 1, 1310, 654)"><g clip-path="url(#1aa8882ee2)"><g fill="#ffdb48" fill-opacity="1"><g transform="translate(1.239359, 264.785221)"><g><path d="M 31.359375 2.8125 C 25.117188 2.8125 19.773438 0.585938 15.328125 -3.859375 C 10.878906 -8.304688 8.65625 -13.570312 8.65625 -19.65625 C 8.65625 -25.894531 10.878906 -31.238281 15.328125 -35.6875 C 19.773438 -40.132812 25.117188 -42.359375 31.359375 -42.359375 C 37.441406 -42.359375 42.707031 -40.132812 47.15625 -35.6875 C 51.601562 -31.238281 53.828125 -25.894531 53.828125 -19.65625 C 53.828125 -15.601562 52.8125 -11.859375 50.78125 -8.421875 C 48.75 -4.992188 46.054688 -2.265625 42.703125 -0.234375 C 39.347656 1.796875 35.566406 2.8125 31.359375 2.8125 Z M 31.359375 2.8125 "/></g></g></g></g></g><g transform="matrix(1, 0, 0, 1, 735, 654)"><g clip-path="url(#dc545ad4c3)"><g fill="#025cd7" fill-opacity="1"><g transform="translate(0.33038, 267.819674)"><g><path d="M 98.46875 0 C 88.488281 0 79.71875 -2.21875 72.15625 -6.65625 C 64.59375 -11.101562 58.664062 -17.066406 54.375 -24.546875 C 50.09375 -32.035156 47.953125 -40.382812 47.953125 -49.59375 L 47.953125 -130.984375 L 3.515625 -130.984375 L 3.515625 -163.734375 L 131.453125 -163.734375 L 131.453125 -130.984375 L 87.25 -130.984375 L 87.25 -46.078125 C 87.25 -42.492188 88.492188 -39.375 90.984375 -36.71875 C 93.484375 -34.070312 96.601562 -32.75 100.34375 -32.75 L 113.203125 -32.75 L 113.203125 0 Z M 98.46875 0 "/></g></g></g><g fill="#025cd7" fill-opacity="1"><g transform="translate(135.290232, 267.819674)"><g><path d="M 58.015625 0 C 48.804688 0 40.457031 -2.140625 32.96875 -6.421875 C 25.488281 -10.710938 19.523438 -16.484375 15.078125 -23.734375 C 10.640625 -30.992188 8.421875 -39.222656 8.421875 -48.421875 C 8.421875 -55.273438 9.941406 -61.703125 12.984375 -67.703125 C 16.023438 -73.710938 20.117188 -78.898438 25.265625 -83.265625 C 20.273438 -87.484375 16.335938 -92.472656 13.453125 -98.234375 C 10.566406 -104.003906 9.125 -110.085938 9.125 -116.484375 C 9.125 -125.523438 11.304688 -133.59375 15.671875 -140.6875 C 20.035156 -147.789062 25.878906 -153.40625 33.203125 -157.53125 C 40.535156 -161.664062 48.648438 -163.734375 57.546875 -163.734375 L 126.546875 -163.734375 L 126.546875 -130.984375 L 63.625 -130.984375 C 60.65625 -130.984375 57.921875 -130.28125 55.421875 -128.875 C 52.929688 -127.476562 50.945312 -125.609375 49.46875 -123.265625 C 47.988281 -120.929688 47.25 -118.203125 47.25 -115.078125 C 47.25 -112.117188 47.988281 -109.429688 49.46875 -107.015625 C 50.945312 -104.597656 52.929688 -102.722656 55.421875 -101.390625 C 57.921875 -100.066406 60.65625 -99.40625 63.625 -99.40625 L 118.59375 -99.40625 L 118.59375 -66.65625 L 64.796875 -66.65625 C 61.515625 -66.65625 58.546875 -65.875 55.890625 -64.3125 C 53.242188 -62.757812 51.140625 -60.734375 49.578125 -58.234375 C 48.023438 -55.742188 47.25 -52.863281 47.25 -49.59375 C 47.25 -46.46875 48.023438 -43.617188 49.578125 -41.046875 C 51.140625 -38.472656 53.242188 -36.484375 55.890625 -35.078125 C 58.546875 -33.679688 61.515625 -32.984375 64.796875 -32.984375 L 126.546875 -32.984375 L 126.546875 0 Z M 58.015625 0 "/></g></g></g><g fill="#025cd7" fill-opacity="1"><g transform="translate(270.951765, 267.819674)"><g><path d="M 14.265625 0 L 14.265625 -163.734375 L 89.125 -163.734375 C 100.1875 -163.734375 110.28125 -161.316406 119.40625 -156.484375 C 128.53125 -151.648438 135.78125 -144.941406 141.15625 -136.359375 C 146.539062 -127.785156 149.234375 -117.882812 149.234375 -106.65625 C 149.234375 -96.207031 146.738281 -86.8125 141.75 -78.46875 C 136.757812 -70.132812 130.207031 -63.394531 122.09375 -58.25 L 135.203125 -36.015625 C 135.984375 -34.929688 136.878906 -34.078125 137.890625 -33.453125 C 138.898438 -32.828125 140.265625 -32.515625 141.984375 -32.515625 L 156.484375 -32.515625 L 156.484375 0 L 133.5625 0 C 126.539062 0 120.144531 -1.675781 114.375 -5.03125 C 108.601562 -8.382812 104.082031 -12.789062 100.8125 -18.25 L 83.265625 -49.359375 C 82.179688 -49.359375 81.050781 -49.359375 79.875 -49.359375 C 78.707031 -49.359375 77.5 -49.359375 76.25 -49.359375 L 53.5625 -49.359375 L 53.5625 0 Z M 53.5625 -81.875 L 84.671875 -81.875 C 89.191406 -81.875 93.398438 -82.847656 97.296875 -84.796875 C 101.203125 -86.742188 104.285156 -89.546875 106.546875 -93.203125 C 108.804688 -96.867188 109.9375 -101.273438 109.9375 -106.421875 C 109.9375 -111.566406 108.765625 -115.972656 106.421875 -119.640625 C 104.085938 -123.304688 101.007812 -126.113281 97.1875 -128.0625 C 93.363281 -130.007812 89.191406 -130.984375 84.671875 -130.984375 L 53.5625 -130.984375 Z M 53.5625 -81.875 "/></g></g></g><g fill="#025cd7" fill-opacity="1"><g transform="translate(430.938812, 267.819674)"><g><path d="M 15.203125 0 L 15.203125 -32.75 L 85.140625 -32.75 C 88.253906 -32.75 91.0625 -33.523438 93.5625 -35.078125 C 96.0625 -36.640625 98.050781 -38.664062 99.53125 -41.15625 C 101.007812 -43.65625 101.75 -46.390625 101.75 -49.359375 C 101.75 -52.472656 101.007812 -55.273438 99.53125 -57.765625 C 98.050781 -60.265625 96.0625 -62.296875 93.5625 -63.859375 C 91.0625 -65.421875 88.253906 -66.203125 85.140625 -66.203125 L 59.875 -66.203125 C 50.363281 -66.203125 41.707031 -68.070312 33.90625 -71.8125 C 26.113281 -75.550781 19.914062 -81.046875 15.3125 -88.296875 C 10.71875 -95.546875 8.421875 -104.238281 8.421875 -114.375 C 8.421875 -124.351562 10.601562 -133.007812 14.96875 -140.34375 C 19.332031 -147.675781 25.253906 -153.40625 32.734375 -157.53125 C 40.222656 -161.664062 48.492188 -163.734375 57.546875 -163.734375 L 129.8125 -163.734375 L 129.8125 -130.984375 L 61.984375 -130.984375 C 59.179688 -130.984375 56.609375 -130.28125 54.265625 -128.875 C 51.921875 -127.476562 50.125 -125.609375 48.875 -123.265625 C 47.632812 -120.929688 47.015625 -118.359375 47.015625 -115.546875 C 47.015625 -112.742188 47.632812 -110.210938 48.875 -107.953125 C 50.125 -105.691406 51.921875 -103.859375 54.265625 -102.453125 C 56.609375 -101.046875 59.179688 -100.34375 61.984375 -100.34375 L 88.421875 -100.34375 C 98.867188 -100.34375 107.953125 -98.351562 115.671875 -94.375 C 123.390625 -90.40625 129.390625 -84.867188 133.671875 -77.765625 C 137.960938 -70.671875 140.109375 -62.367188 140.109375 -52.859375 C 140.109375 -41.628906 137.882812 -32.078125 133.4375 -24.203125 C 129 -16.328125 123.035156 -10.320312 115.546875 -6.1875 C 108.066406 -2.0625 99.800781 0 90.75 0 Z M 15.203125 0 "/></g></g></g></g></g></svg>