<svg width="1214" height="1189" viewBox="0 0 1214 1189" fill="none" xmlns="http://www.w3.org/2000/svg">
<path d="M1174.5 0H39.2152C17.5573 0 0 20.3073 0 45.3576V954.778C0 979.828 17.5573 1000.14 39.2152 1000.14H1174.5C1196.15 1000.14 1213.71 979.828 1213.71 954.778V45.3576C1213.71 20.3073 1196.15 0 1174.5 0Z" fill="#FFCC58"/>
<path d="M1166.65 54.4291H50.9799V861.795H1166.65V54.4291Z" fill="white"/>
<path d="M1166.65 54.4291H50.98V861.795H1166.65V54.4291Z" fill="#FBFDFF"/>
<mask id="mask0_1_440" style="mask-type:luminance" maskUnits="userSpaceOnUse" x="45" y="60" width="1117" height="809">
<path d="M1161.05 60.9556H45.3788V868.321H1161.05V60.9556Z" fill="white"/>
</mask>
<g mask="url(#mask0_1_440)">
<path fill-rule="evenodd" clip-rule="evenodd" d="M667.372 592.812C667.372 592.812 654.199 688.471 666.962 716.978C677.124 739.68 737.081 770.727 737.081 770.727L747.818 837.358L525.21 863.778C499.452 857.179 406.208 829.533 435.972 786.353C465.733 743.15 528.783 731.243 539.032 712.08C558.71 675.318 562.306 600.591 561.763 572.379C561.763 565.371 667.372 592.812 667.372 592.812Z" fill="#09B9C6"/>
<path fill-rule="evenodd" clip-rule="evenodd" d="M708.267 751.994C703.734 761.746 682.469 807.489 657.005 810.664C619.48 815.359 566.055 784.062 527.093 761.247C508.136 750.157 492.603 741.063 483.989 739.09C479.613 738.092 414.641 761.315 373.575 800.64C361.283 812.388 325.974 851.94 332.481 908.886C333.332 916.325 329.06 941.771 323.997 971.911C316.05 1019.26 306.152 1078.23 311.056 1097.37C325.728 1154.68 383.518 1158.08 451.08 1161.46C585.888 1168.24 709.661 1163.75 756.608 1162.05C766.108 1161.69 772.463 1161.46 775.125 1161.46C847.017 1161.46 873.252 1161.46 897.114 1119.14C867.585 1031.15 834.154 922.38 828.997 893.329C816.446 822.82 779.586 796.649 765.97 786.988C765.755 786.829 765.545 786.693 765.341 786.534C764.29 785.74 763.225 784.969 762.155 784.175C761.971 784.017 761.804 783.881 761.655 783.745C761.653 783.767 761.649 783.79 761.649 783.79C737.704 766.237 709.732 749.364 709.132 750.203C709.046 750.316 708.754 750.951 708.267 751.994Z" fill="#007AEB"/>
<path fill-rule="evenodd" clip-rule="evenodd" d="M803.621 291.868C803.621 291.868 816.686 347.053 813.856 369.811C810.174 399.416 789.882 396.844 792.598 406.587C801.88 439.902 776.053 451.491 776.053 451.491C776.053 451.491 770.68 419.249 771.17 386.836C771.663 354.421 766.747 331.108 766.747 331.108L803.621 291.868Z" fill="#090E2B"/>
<path fill-rule="evenodd" clip-rule="evenodd" d="M709.761 693.755C771.823 687.997 798.837 647.661 801.815 608.61C805.668 558.068 794.888 520.349 789.368 483.371C770.229 355.193 800.968 330.046 699.1 306.405C645.729 294.02 528.192 310.321 499.349 389.268C488.077 420.122 505.998 474.433 509.143 518.875C517.337 634.682 634.291 700.759 709.761 693.755Z" fill="#FDCDAC"/>
<path fill-rule="evenodd" clip-rule="evenodd" d="M574.994 182.703C501.883 195.75 485.391 250.851 481.667 275.056C480.14 267.701 479.069 259.539 482.026 253.529C483.091 251.129 479.846 249.238 478.82 251.656C474.677 261.841 474.691 273.264 476.846 284.025C468.903 282.603 460.613 284.032 453.644 288.865C452.054 289.956 453.511 292.822 455.113 291.781C459.793 289.457 464.95 288.822 469.991 289.493C460.875 293.323 447.785 302.05 438.683 321.807C428.887 343.073 425.833 374.254 430.082 398.833C438.142 445.45 471.207 463.402 466.26 474.501C451.879 506.757 468.091 560.867 487.301 583.539C514.408 615.532 543.632 622.013 544.13 585.614C544.63 549.216 535.297 481.157 543.338 474.678C559.33 497.559 566.659 500.371 568.49 485.664C572.245 455.471 563.547 441.145 554.053 425.1C541.495 403.868 590.084 396.627 590.669 361.758C598.033 371.05 603.576 388.95 632.529 398.176C656.862 405.93 686.797 406.143 710.728 366.078C728.804 401.702 771.537 387.553 784.653 383.652C854.509 362.885 829.158 210.469 746.473 225.847C693.82 235.64 643.87 170.409 574.994 182.703Z" fill="#090E2B"/>
<path fill-rule="evenodd" clip-rule="evenodd" d="M555.206 495.236C546.369 473.09 529.842 454.403 501.669 461.207C472.524 468.248 468.973 536.702 520.732 561.467C536.712 569.112 542.412 565.404 546.798 560.367C557.096 548.536 559.169 505.17 555.206 495.236Z" fill="#FDCDAC"/>
<path fill-rule="evenodd" clip-rule="evenodd" d="M507.99 483.736C509.164 483.911 510.325 484.16 511.47 484.494C513.758 485.153 515.984 486.104 518.123 487.276C522.384 489.655 526.297 493.034 529.35 497.234C530.197 498.198 530.816 499.378 531.526 500.466C532.224 501.564 532.897 502.675 533.416 503.898C533.971 505.086 534.548 506.261 535.059 507.465L536.293 511.209L536.891 513.078L537.287 515.008C537.549 516.289 537.812 517.568 538.038 518.847C538.375 521.43 538.549 524.025 538.714 526.579C538.771 527.481 538.187 528.266 537.408 528.332C536.761 528.386 536.185 527.93 535.973 527.257L535.908 527.048C535.183 524.719 534.683 522.367 533.953 520.117C533.526 519.017 533.134 517.915 532.744 516.82L532.157 515.18L531.418 513.636L529.979 510.563L528.271 507.721C527.75 506.741 527.093 505.886 526.427 505.05C525.744 504.231 525.209 503.265 524.438 502.555C521.691 499.337 518.405 496.867 514.937 494.837C514.068 494.329 513.164 493.903 512.276 493.424C511.362 493.032 510.454 492.592 509.527 492.227C507.717 491.474 505.666 490.869 504.003 490.438L503.666 490.351C502.035 489.927 501.009 488.056 501.376 486.172C501.69 484.555 502.927 483.453 504.299 483.439C505.692 483.425 506.792 483.534 507.99 483.736Z" fill="#090E2B"/>
<path fill-rule="evenodd" clip-rule="evenodd" d="M526.339 505.093C526.164 505.027 525.833 504.991 525.55 504.934C524.898 504.893 524.205 504.866 523.484 504.991C522.052 505.186 520.619 505.694 519.296 506.433C517.962 507.15 516.747 508.161 515.66 509.327C514.537 510.445 513.629 511.878 512.747 513.295L512.623 513.493C511.268 515.675 508.639 516.169 506.755 514.6C504.868 513.03 504.441 509.991 505.798 507.809C505.892 507.658 506.011 507.49 506.119 507.354C507.578 505.526 509.102 503.748 510.931 502.333C512.713 500.886 514.676 499.686 516.774 498.919C518.864 498.132 521.051 497.711 523.278 497.754C524.386 497.754 525.527 497.942 526.68 498.23C527.284 498.436 527.854 498.602 528.518 498.969C529.128 499.314 529.946 499.706 530.857 501.101C531.714 502.571 531.381 504.564 530.112 505.557C528.844 506.549 527.119 506.165 526.26 504.698C526.568 505.294 526.59 505.111 526.339 505.093Z" fill="#090E2B"/>
<path fill-rule="evenodd" clip-rule="evenodd" d="M616.55 677.157C609.58 672.916 591.919 661.381 588.063 655.972C586.051 653.153 588.976 655.997 592.363 658.252C596.868 661.254 614.719 672.934 636.96 681.354C638.889 682.085 651.197 686.088 651.57 686.809C651.917 687.482 650.878 688.886 649.472 688.87C640.015 688.773 625.099 682.357 616.55 677.157Z" fill="#090E2B"/>
<path fill-rule="evenodd" clip-rule="evenodd" d="M610.713 431.02C614.196 412.916 660.024 406.57 680.191 420.588C687.163 425.38 700.112 438.545 688.647 445.711C685.62 447.235 682.679 445.673 680.191 443.815C652.705 421.722 608.285 443.64 610.713 431.02Z" fill="#090E2B"/>
<path fill-rule="evenodd" clip-rule="evenodd" d="M647.894 463.749C637.525 467.151 628.637 476.79 627.812 484.777C627.312 489.603 643.684 501.19 659.474 502.09C680.246 503.272 690.717 490.256 690.68 486.097C689.282 473.51 676.75 454.283 647.894 463.749Z" fill="white"/>
<path fill-rule="evenodd" clip-rule="evenodd" d="M680.025 470.911C664.058 456.954 639.329 466.048 627.812 484.776C627.151 485.747 627.341 483.305 627.8 482.191C633.357 468.704 643.382 462.338 655.005 459.562C661.999 457.891 668.521 457.755 675.342 461.288C677.98 462.651 682.638 466.806 686.238 471.505C689.046 475.167 691.411 481.447 688.162 479.227C685.619 477.487 682.142 472.763 680.025 470.911Z" fill="#090E2B"/>
<path fill-rule="evenodd" clip-rule="evenodd" d="M659.271 494.74C668.147 494.74 675.343 487.147 675.343 477.778C675.343 468.412 668.147 460.817 659.271 460.817C650.395 460.817 643.199 468.412 643.199 477.778C643.199 487.147 650.395 494.74 659.271 494.74Z" fill="#090E2B"/>
<path fill-rule="evenodd" clip-rule="evenodd" d="M774.208 428.032C780.784 431.406 789.539 442.605 782.251 442.605C774.963 442.605 759.178 440.213 748.595 445.264C744.899 446.357 742.095 448.449 738.383 448.959C729.936 450.862 725.346 439.16 731.319 432.086C738.066 424.094 760.844 420.305 774.208 428.032Z" fill="#090E2B"/>
<path fill-rule="evenodd" clip-rule="evenodd" d="M766.757 501.45C777.288 498.617 785.165 487.572 784.274 479.32C782.537 468.384 764.331 461.401 754.134 467.372C744.034 473.285 737.714 486.495 738.53 491.711C739.708 495.322 755.994 504.346 766.757 501.45Z" fill="white"/>
<path fill-rule="evenodd" clip-rule="evenodd" d="M758.042 495.489C764.98 495.489 770.604 489.243 770.604 481.541C770.604 473.837 766.641 466.557 758.042 467.594C751.143 468.424 745.48 473.837 745.48 481.541C745.48 489.243 751.105 495.489 758.042 495.489Z" fill="#090E2B"/>
<path fill-rule="evenodd" clip-rule="evenodd" d="M738.905 484.221C742.883 467.044 760.846 458.211 775.051 466.343C777.051 467.55 780.298 470.258 782.729 473.528C784.966 476.544 784.674 478.125 783.761 477.812C782.247 477.291 779.045 473.968 776.443 472.539C763.287 465.321 749.599 469.371 739.577 486.31C739.085 487.188 738.619 485.212 738.905 484.221Z" fill="#090E2B"/>
<path fill-rule="evenodd" clip-rule="evenodd" d="M739.951 549.311C738.039 560.466 726.188 561.552 718.469 559.024C712.195 556.969 710.57 552.742 712.691 551.387C716.148 549.178 727.229 555.322 731.319 549.457C738.613 538.998 716.232 500.542 723.343 506.722C732.74 514.888 741.227 541.866 739.951 549.311Z" fill="#090E2B"/>
<path fill-rule="evenodd" clip-rule="evenodd" d="M745.148 595.22C743.643 596.532 740.107 601.944 736.533 605.38C728.493 613.109 715.415 614.886 707.709 613.109C693.222 609.769 686.955 598.841 683.125 595.848C679.296 592.855 686.485 589.012 691.984 589.576C697.484 590.141 701.176 591.987 711.671 597.21C718.445 600.581 733.761 595.848 738.088 592.855C746.344 587.146 748.82 592.022 745.148 595.22Z" fill="#090E2B"/>
</g>
<path d="M731.364 1000.13H498.034V1129.4H731.364V1000.13Z" fill="#FFCC58"/>
<path d="M358.82 1163.42C358.82 1144.64 371.988 1129.4 388.231 1129.4H839.206C855.441 1129.4 868.618 1144.64 868.618 1163.42V1188.36H358.82V1163.42Z" fill="#FFCC58"/>
</svg>
