<svg width="1300" height="1486" viewBox="0 0 1300 1486" fill="none" xmlns="http://www.w3.org/2000/svg">
<path fill-rule="evenodd" clip-rule="evenodd" d="M1299.02 223.329C1299.02 223.329 1284.09 356.282 1061.32 517.328C1000.51 561.135 972.44 607.254 951.495 650.026C931.448 657.497 901.374 667.031 883.103 665.484C883.103 665.484 910.507 674.506 940.134 674.506C911.397 737.635 882.676 790.2 775.524 811.327C775.524 811.327 662.502 732.904 750.779 507.023C773.948 530.21 804.022 574.012 804.022 574.012C800.457 540.261 773.724 501.612 760.36 484.086C760.579 483.832 760.579 483.573 760.803 483.315C825.634 342.633 950.385 337.735 1070.46 329.235C1069.12 348.04 1065.11 376.13 1054.64 397.77C1054.64 397.77 1086.5 369.943 1096.3 327.171C1116.12 325.624 1135.73 323.565 1154.89 320.472C1210.13 311.709 1268.95 276.411 1299.02 223.329Z" fill="#009BA0"/>
<path d="M20.3743 257.121C50.9033 251.909 86.9892 251.073 126.906 257.382C181.921 266.079 237.293 287.481 291.281 324.361C291.932 324.806 292.297 325.638 292.238 326.493L292.203 326.779L278.309 403.617L309.296 340.109C309.816 339.046 310.955 338.663 311.875 339.191L312.083 339.329C330.998 353.726 349.665 370.259 368.264 389.152C438.03 459.842 481.053 532.437 502.312 604.111C516.88 653.229 519.694 695.765 515.774 728.885C515.612 730.269 515.441 731.566 515.269 732.773L515.008 734.517L514.743 736.125L514.478 737.592L514.249 738.726L514.172 738.984L514.096 739.173L513.984 739.393L513.851 739.594L513.702 739.774L513.596 739.88L513.404 740.041L513.198 740.17L513.176 740.18C513.102 740.223 513.035 740.252 512.967 740.277L512.759 740.341L512.541 740.379L512.32 740.388L512.067 740.363L511.837 740.306L511.614 740.218L511.449 740.13L511.261 740L511.19 739.941C502.986 732.886 494.661 726.745 485.971 721.268L483.959 720.014L482.075 718.868C481.761 718.68 481.447 718.492 481.136 718.306L479.255 717.199L477.373 716.113C477.059 715.934 476.745 715.757 476.43 715.58L474.536 714.525L472.626 713.487L470.7 712.464C470.377 712.294 470.053 712.126 469.73 711.958L467.767 710.953C467.44 710.786 467.108 710.62 466.777 710.454L464.771 709.461L462.73 708.477L460.648 707.493C460.297 707.329 459.946 707.166 459.591 707.003L457.442 706.021C457.079 705.857 456.716 705.694 456.35 705.531L454.122 704.544L451.84 703.553L449.495 702.553L447.085 701.546L443.336 700.009L440.742 698.963L438.068 697.902L433.895 696.271L430.999 695.153L405.505 685.415L396.876 682.063L390.821 679.666L384.935 677.266L380.711 675.486L377.268 673.985L374.441 672.715L370.758 671L368.808 670.068L366.723 669.054L364.594 668L362.398 666.9L360.117 665.741L356.488 663.879L355.214 663.221C324.836 647.512 294.932 627.194 262.509 599.147C261.528 598.299 261.466 596.654 262.319 595.704L262.515 595.511L302.097 561.484L251.601 587.699C251.027 587.996 250.37 587.955 249.832 587.603L249.609 587.433L247.448 585.506L244.585 582.888L242.027 580.505L239.111 577.756C224.148 563.543 208.703 546.702 193.251 528.142L189.817 523.987C184.094 517.02 178.376 509.826 172.684 502.451L169.273 498.004C168.706 497.26 168.137 496.514 167.571 495.765L164.171 491.259C163.606 490.504 163.041 489.749 162.475 488.991L159.09 484.428L155.718 479.829L152.359 475.2C151.798 474.425 151.241 473.649 150.683 472.874L147.343 468.199C146.789 467.417 146.234 466.635 145.679 465.85L142.363 461.137C141.812 460.35 141.261 459.561 140.712 458.772L137.422 454.023L134.151 449.254C133.608 448.457 133.065 447.661 132.522 446.863L129.283 442.069C128.206 440.468 127.132 438.864 126.063 437.259L122.867 432.437L119.695 427.607C119.169 426.799 118.644 425.994 118.118 425.187L114.985 420.345C114.465 419.535 113.946 418.728 113.428 417.921L110.336 413.072C109.311 411.455 108.289 409.838 107.271 408.221L104.238 403.37L101.234 398.523L98.2636 393.684L95.6009 389.363L92.9577 385.116C92.5185 384.415 92.0813 383.714 91.644 383.018L89.0343 378.874L86.4441 374.799L83.8775 370.792L81.3304 366.855L78.8069 362.986L76.303 359.182L73.8227 355.449L71.3619 351.782L68.9247 348.181L66.509 344.648L64.113 341.18C63.7169 340.608 63.3208 340.039 62.9248 339.472L60.564 336.102L58.2229 332.8C57.8346 332.254 57.4484 331.712 57.0621 331.172L54.7543 327.965L52.47 324.824C52.0916 324.307 51.7131 323.79 51.3367 323.277L49.0837 320.234L46.8544 317.252L44.6465 314.333L42.4603 311.48L40.2976 308.688L38.1564 305.957L36.0368 303.29L33.9408 300.685C33.5937 300.256 33.2467 299.83 32.9016 299.406L30.8369 296.893L28.7977 294.439L26.7781 292.049C26.4448 291.654 26.1095 291.264 25.7781 290.874L23.7468 288.522C23.0782 287.753 22.4193 287 21.7684 286.266L19.8449 284.104C19.2115 283.401 18.588 282.712 17.9723 282.04L16.1547 280.07L14.3881 278.192C14.0998 277.888 13.8116 277.586 13.5253 277.289L11.841 275.55L10.2099 273.901L8.63224 272.343C8.37382 272.089 8.11774 271.842 7.86382 271.597L6.43698 270.236L5.16562 269.052C4.9619 268.866 4.76209 268.683 4.56621 268.506L3.44016 267.501C3.26055 267.345 3.08506 267.19 2.91349 267.043L1.88272 266.168L1.12547 265.553L0.897248 265.376C-0.531363 264.308 -0.187258 261.788 1.45625 261.28L2.73448 260.913L4.42446 260.462L5.7064 260.137L6.39325 259.969C7.39344 259.725 8.43558 259.482 9.51929 259.241L11.7414 258.758L14.0724 258.282L16.5135 257.81L19.0606 257.348C19.4939 257.271 19.9311 257.196 20.3743 257.121Z" fill="#017C7F"/>
<path fill-rule="evenodd" clip-rule="evenodd" d="M649.945 809.084C649.945 809.084 544.884 773.07 470.642 617.739C495.932 609.248 512.249 589.622 512.249 589.622C494.3 595.473 461.665 597.927 461.665 597.927C307.224 373.57 385.117 0 385.117 0C402.25 49.2584 487.414 119.721 556.433 223.327C546.97 232.957 513.696 271.96 505.375 287.245C505.375 287.245 542.766 254.071 562.672 242.931C625.985 338.803 673.769 458.044 692.043 552.034C731.858 758.13 649.945 809.084 649.945 809.084Z" fill="#009BA0"/>
<path fill-rule="evenodd" clip-rule="evenodd" d="M418.077 137.066C443.689 217.989 470.642 298.385 500.002 377.575C514.778 417.108 530.057 456.438 547.382 494.507C549.586 499.242 551.656 504.063 553.966 508.717L560.982 522.633C565.617 531.918 570.57 541.134 575.346 550.387C584.625 569.12 593.754 587.984 601.726 607.542C618.059 646.405 630.836 687.372 639.24 729.532C643.506 750.591 646.761 771.887 649.749 793.168C651.29 803.787 652.686 814.468 653.953 825.204C655.075 835.927 656.188 846.649 657.094 857.39C660.882 900.321 663.557 943.334 666.153 986.346C668.682 1029.37 670.925 1072.4 672.918 1115.46C672.992 1117.03 671.953 1118.36 670.604 1118.44C669.251 1118.53 668.098 1117.33 668.024 1115.76V1115.75C666.161 1072.72 664.043 1029.69 661.647 986.691C659.181 943.706 656.635 900.707 652.981 857.866C652.11 847.153 651.036 836.471 649.949 825.794C648.726 815.171 647.373 804.539 645.859 793.894C642.942 772.63 639.765 751.439 635.589 730.511C627.373 688.619 614.82 647.942 598.695 609.221C590.828 589.744 581.793 570.925 572.609 552.233C567.86 542.967 563.001 533.854 558.346 524.461L551.323 510.418C549.009 505.724 546.947 500.879 544.75 496.117C527.472 457.826 512.292 418.392 497.622 378.754C468.465 299.369 441.748 218.85 416.364 137.774C416.191 137.229 416.438 136.626 416.909 136.426C417.383 136.227 417.909 136.517 418.077 137.066Z" fill="black"/>
<path fill-rule="evenodd" clip-rule="evenodd" d="M115.071 316.238L300.818 465.079C331.802 489.93 361.3 517.308 388.943 546.994C395.958 554.288 402.574 562.076 409.378 569.632C415.899 577.516 422.676 585.122 428.95 593.282C441.875 609.193 453.863 626.094 465.42 643.361C476.844 660.765 487.334 678.985 496.914 697.854C506.141 716.954 514.416 736.712 520.416 757.594C521.933 762.783 523.082 768.09 524.435 773.333C525.667 778.608 527.208 783.811 528.172 789.154C530.231 799.809 532.698 810.377 534.415 821.109C538.215 842.49 541.411 863.999 544.306 885.548C555.603 971.814 562.478 1058.68 567.364 1145.71C567.45 1147.27 566.427 1148.62 565.078 1148.72C563.725 1148.82 562.56 1147.63 562.47 1146.07V1146.06V1146.01C557.886 1059.18 551.298 972.317 540.317 886.247C537.506 864.747 534.388 843.293 530.674 821.993C529 811.298 526.584 800.802 524.572 790.193C523.631 784.863 522.121 779.733 520.921 774.49C519.6 769.297 518.474 764.017 516.996 758.892C511.173 738.349 503.051 718.746 493.973 699.791C484.541 681.053 474.193 662.919 462.895 645.57C451.46 628.357 439.593 611.488 426.774 595.591C420.562 587.44 413.836 579.833 407.366 571.955C400.613 564.398 394.048 556.61 387.084 549.312C359.629 519.598 330.328 492.184 299.497 467.256L114.256 317.598C113.93 317.34 113.848 316.823 114.075 316.446C114.299 316.07 114.746 315.975 115.071 316.238Z" fill="black"/>
<path fill-rule="evenodd" clip-rule="evenodd" d="M1201.98 351.283C1138.89 397.412 1075.44 442.86 1012.13 488.581L964.712 522.871C949.222 534.492 934.685 547.981 920.662 562.028C906.556 576.008 893.423 591.248 880.56 606.733C874.388 614.761 867.89 622.454 862.07 630.831L853.137 643.182L844.667 655.964C833.294 672.946 823.251 691.016 813.734 709.418C811.459 714.081 809.353 718.857 807.153 723.574C805.063 728.35 802.612 732.931 800.812 737.866L795.126 752.521L792.295 759.851L789.934 767.394L785.213 782.48C783.565 787.487 782.679 792.758 781.373 797.883C780.193 803.054 778.907 808.166 777.805 813.387L774.797 829.18L763.056 892.449C747.836 976.919 733.264 1061.57 719.484 1146.37C719.237 1147.91 717.962 1148.93 716.629 1148.65C715.3 1148.37 714.417 1146.88 714.66 1145.34C728.307 1060.45 742.44 975.676 757.876 891.188L769.679 827.874L772.711 812.067C773.82 806.805 775.142 801.553 776.346 796.291C777.679 791.075 778.601 785.696 780.271 780.611L785.087 765.267L787.499 757.597L790.377 750.154L796.169 735.285C798.001 730.273 800.483 725.638 802.608 720.798C804.844 716.017 806.981 711.178 809.291 706.456C818.942 687.832 829.126 669.562 840.624 652.417L849.196 639.522L858.223 627.057C864.11 618.612 870.67 610.851 876.902 602.759C889.894 587.152 903.152 571.794 917.403 557.697C931.587 543.532 946.234 529.947 962.073 518.086C977.959 506.524 993.877 495.457 1009.78 484.118C1073.43 439.068 1136.94 393.752 1200.82 349.115C1201.34 348.748 1202.02 348.938 1202.33 349.542C1202.65 350.136 1202.49 350.911 1201.98 351.283Z" fill="black"/>
<path fill-rule="evenodd" clip-rule="evenodd" d="M568.148 1485.67H721.805C776.518 1485.67 822.279 1478.39 827.506 1415.4L864.698 967.237H425.256L462.444 1415.4C467.671 1478.39 513.431 1485.67 568.148 1485.67Z" fill="#F0F1FF"/>
</svg>
