<svg width="451" height="909" viewBox="0 0 451 909" fill="none" xmlns="http://www.w3.org/2000/svg">
<path fill-rule="evenodd" clip-rule="evenodd" d="M371.424 60.4138H341.172L359.053 452.757H89.6812L107.562 60.4138H77.3099L66.426 452.757H65.5453V482.239H65.6075L53.7807 908.601H68.9066L88.3366 482.239H360.397L379.827 908.601H394.953L371.424 60.4138Z" fill="#8E2420"/>
<path fill-rule="evenodd" clip-rule="evenodd" d="M450.415 48.68C450.415 27.2032 438.136 9.43212 422.244 8.24148C380.989 5.14583 300.252 0 219.608 0C143.607 0 67.6933 5.03246 28.0971 8.13718C12.2486 9.37771 0 27.1239 0 48.5463V71.7535C0 94.3007 13.5444 112.575 30.2518 112.575H420.163C436.871 112.575 450.415 94.3007 450.415 71.7535V48.68Z" fill="#007AEB"/>
</svg>
