<svg width="2073" height="1343" viewBox="0 0 2073 1343" fill="none" xmlns="http://www.w3.org/2000/svg">
<path d="M2047.04 0H25.4899C11.4122 0 0 13.1997 0 29.4824V61.2328C0 77.5155 11.4122 90.7152 25.4899 90.7152H2047.04C2061.11 90.7152 2072.52 77.5155 2072.52 61.2328V29.4824C2072.52 13.1997 2061.11 0 2047.04 0Z" fill="#E4E7FF"/>
<path d="M698.031 0H25.4899C11.4122 0 0 13.1997 0 29.4824V61.2328C0 77.5155 11.4122 90.7152 25.4899 90.7152H698.031C712.109 90.7152 723.521 77.5155 723.521 61.2328V29.4824C723.521 13.1997 712.109 0 698.031 0Z" fill="#BACCFF"/>
<path d="M1896.06 90.715H1427.43V1342.58H1896.06V90.715Z" fill="#C7D2F2"/>
<path d="M637.247 90.715H168.625V1342.58H637.247V90.715Z" fill="#C7D2F2"/>
</svg>
