<svg width="3095" height="17" viewBox="0 0 3095 17" fill="none" xmlns="http://www.w3.org/2000/svg">
<path d="M6.86856 0L1260.37 1.13394C1264.15 1.13394 1267.22 4.69451 1267.22 9.07152C1267.22 13.3125 1264.35 16.7823 1260.73 16.9864L1260.35 17.0091L6.85678 15.8752C3.06662 15.8752 -0.00391777 12.3146 3.75208e-06 7.93758C0.00196451 3.69664 2.87645 0.22681 6.49209 0.0227009L6.86856 0Z" fill="#090E2B"/>
<path d="M1457.83 0.000244141L3087.79 1.13418C3091.57 1.13418 3094.65 4.69476 3094.65 9.07176C3094.65 13.3127 3091.77 16.7825 3088.16 16.9866L3087.79 17.0093L1457.82 15.8754C1454.03 15.8754 1450.96 12.3148 1450.96 7.93782C1450.97 3.69689 1453.84 0.227054 1457.45 0.0229451L1457.83 0.000244141Z" fill="#090E2B"/>
<path d="M6.86856 0L1260.37 1.13394C1264.15 1.13394 1267.22 4.69451 1267.22 9.07152C1267.22 13.3125 1264.35 16.7823 1260.73 16.9864L1260.35 17.0091L6.85678 15.8752C3.06662 15.8752 -0.00391777 12.3146 3.75208e-06 7.93758C0.00196451 3.69664 2.87645 0.22681 6.49209 0.0227009L6.86856 0Z" fill="#090E2B"/>
</svg>
