<svg width="3198" height="2240" viewBox="0 0 3198 2240" fill="none" xmlns="http://www.w3.org/2000/svg">
<path d="M2513.7 1045.86H492.151C478.074 1045.86 466.661 1057.52 466.661 1071.91V1099.96C466.661 1114.35 478.074 1126.01 492.151 1126.01H2513.7C2527.77 1126.01 2539.19 1114.35 2539.19 1099.96V1071.91C2539.19 1057.52 2527.77 1045.86 2513.7 1045.86Z" fill="#E4E7FF"/>
<path d="M1164.69 1045.86H492.151C478.074 1045.86 466.661 1057.52 466.661 1071.91V1099.96C466.661 1114.35 478.074 1126.01 492.151 1126.01H1164.69C1178.77 1126.01 1190.18 1114.35 1190.18 1099.96V1071.91C1190.18 1057.52 1178.77 1045.86 1164.69 1045.86Z" fill="#BACCFF"/>
<path d="M2362.72 1126.01H1894.1V2231.98H2362.72V1126.01Z" fill="#C7D2F2"/>
<path d="M1103.91 1126.01H635.287V2231.98H1103.91V1126.01Z" fill="#C7D2F2"/>
<path fill-rule="evenodd" clip-rule="evenodd" d="M1299.02 1122.85C1299.02 1122.85 1284.09 1240.31 1061.32 1382.59C1000.51 1421.29 972.44 1462.03 951.495 1499.82C931.448 1506.42 901.374 1514.84 883.103 1513.48C883.103 1513.48 910.507 1521.45 940.134 1521.45C911.397 1577.22 882.676 1623.66 775.524 1642.32C775.524 1642.32 662.502 1573.04 750.779 1373.48C773.948 1393.97 804.022 1432.66 804.022 1432.66C800.457 1402.85 773.724 1368.7 760.36 1353.22C760.579 1352.99 760.579 1352.77 760.803 1352.54C825.634 1228.25 950.385 1223.92 1070.46 1216.41C1069.12 1233.03 1065.11 1257.84 1054.64 1276.96C1054.64 1276.96 1086.5 1252.38 1096.3 1214.59C1116.12 1213.22 1135.73 1211.4 1154.89 1208.67C1210.13 1200.93 1268.95 1169.75 1299.02 1122.85Z" fill="#009BA0"/>
<path d="M20.3743 1152.7C50.9033 1148.1 86.9892 1147.36 126.906 1152.93C181.921 1160.62 237.293 1179.53 291.281 1212.11C291.932 1212.5 292.297 1213.24 292.238 1213.99L292.203 1214.24L278.309 1282.13L309.296 1226.02C309.816 1225.08 310.955 1224.74 311.875 1225.21L312.083 1225.33C330.998 1238.05 349.665 1252.66 368.264 1269.35C438.03 1331.8 481.053 1395.93 502.312 1459.26C516.88 1502.65 519.694 1540.23 515.774 1569.49C515.612 1570.71 515.441 1571.86 515.269 1572.92L515.008 1574.46L514.743 1575.88L514.478 1577.18L514.249 1578.18L514.172 1578.41L514.096 1578.58L513.984 1578.77L513.851 1578.95L513.702 1579.11L513.596 1579.2L513.404 1579.34L513.198 1579.46L513.176 1579.47C513.102 1579.5 513.035 1579.53 512.967 1579.55L512.759 1579.61L512.541 1579.64L512.32 1579.65L512.067 1579.63L511.837 1579.58L511.614 1579.5L511.449 1579.42L511.261 1579.31L511.19 1579.26C502.986 1573.02 494.661 1567.6 485.971 1562.76L483.959 1561.65L482.075 1560.64C481.761 1560.47 481.447 1560.31 481.136 1560.14L479.255 1559.16L477.373 1558.2C477.059 1558.05 476.745 1557.89 476.43 1557.73L474.536 1556.8L472.626 1555.88L470.7 1554.98C470.377 1554.83 470.053 1554.68 469.73 1554.53L467.767 1553.65C467.44 1553.5 467.108 1553.35 466.777 1553.21L464.771 1552.33L462.73 1551.46L460.648 1550.59C460.297 1550.44 459.946 1550.3 459.591 1550.16L457.442 1549.29C457.079 1549.14 456.716 1549 456.35 1548.86L454.122 1547.98L451.84 1547.11L449.495 1546.23L447.085 1545.34L443.336 1543.98L440.742 1543.05L438.068 1542.12L433.895 1540.68L430.999 1539.69L405.505 1531.08L396.876 1528.12L390.821 1526.01L384.935 1523.89L380.711 1522.31L377.268 1520.99L374.441 1519.86L370.758 1518.35L368.808 1517.53L366.723 1516.63L364.594 1515.7L362.398 1514.73L360.117 1513.7L356.488 1512.06L355.214 1511.48C324.836 1497.6 294.932 1479.65 262.509 1454.87C261.528 1454.12 261.466 1452.67 262.319 1451.83L262.515 1451.66L302.097 1421.6L251.601 1444.76C251.027 1445.02 250.37 1444.98 249.832 1444.67L249.609 1444.52L247.448 1442.82L244.585 1440.51L242.027 1438.4L239.111 1435.97C224.148 1423.42 208.703 1408.54 193.251 1392.14L189.817 1388.47C184.094 1382.31 178.376 1375.96 172.684 1369.44L169.273 1365.51C168.706 1364.86 168.137 1364.2 167.571 1363.54L164.171 1359.56C163.606 1358.89 163.041 1358.22 162.475 1357.55L159.09 1353.52L155.718 1349.46L152.359 1345.37C151.798 1344.68 151.241 1344 150.683 1343.31L147.343 1339.18C146.788 1338.49 146.234 1337.8 145.679 1337.11L142.363 1332.94C141.812 1332.25 141.261 1331.55 140.712 1330.85L137.422 1326.66L134.151 1322.45C133.608 1321.74 133.065 1321.04 132.522 1320.33L129.283 1316.1C128.206 1314.68 127.132 1313.27 126.063 1311.85L122.867 1307.59L119.695 1303.32C119.169 1302.61 118.644 1301.9 118.118 1301.18L114.985 1296.91C114.465 1296.19 113.946 1295.48 113.428 1294.76L110.336 1290.48C109.311 1289.05 108.289 1287.62 107.271 1286.19L104.238 1281.91L101.234 1277.63L98.2636 1273.35L95.6009 1269.53L92.9577 1265.78C92.5185 1265.16 92.0813 1264.54 91.644 1263.93L89.0343 1260.27L86.4441 1256.67L83.8775 1253.13L81.3304 1249.65L78.8069 1246.23L76.303 1242.87L73.8227 1239.57L71.3619 1236.33L68.9247 1233.15L66.509 1230.03L64.113 1226.97C63.7169 1226.46 63.3208 1225.96 62.9248 1225.46L60.564 1222.48L58.2229 1219.56C57.8346 1219.08 57.4483 1218.6 57.0621 1218.12L54.7543 1215.29L52.47 1212.52C52.0916 1212.06 51.7131 1211.6 51.3367 1211.15L49.0837 1208.46L46.8544 1205.83L44.6465 1203.25L42.4603 1200.73L40.2976 1198.26L38.1564 1195.85L36.0368 1193.49L33.9408 1191.19C33.5937 1190.81 33.2467 1190.44 32.9016 1190.06L30.8369 1187.84L28.7977 1185.67L26.7781 1183.56C26.4448 1183.21 26.1095 1182.87 25.7781 1182.52L23.7468 1180.45C23.0782 1179.77 22.4193 1179.1 21.7684 1178.45L19.8449 1176.54C19.2115 1175.92 18.588 1175.31 17.9723 1174.72L16.1547 1172.98L14.3881 1171.32C14.0998 1171.05 13.8116 1170.78 13.5253 1170.52L11.841 1168.99L10.2099 1167.53L8.63224 1166.15C8.37382 1165.93 8.11774 1165.71 7.86382 1165.49L6.43698 1164.29L5.16562 1163.24C4.9619 1163.08 4.76209 1162.92 4.56621 1162.76L3.44016 1161.87C3.26055 1161.74 3.08506 1161.6 2.91349 1161.47L1.88272 1160.7L1.12547 1160.15L0.897248 1160C-0.531363 1159.05 -0.187258 1156.83 1.45625 1156.38L2.73448 1156.05L4.42446 1155.66L5.7064 1155.37L6.39325 1155.22C7.39344 1155 8.43558 1154.79 9.51929 1154.58L11.7414 1154.15L14.0724 1153.73L16.5135 1153.31L19.0606 1152.9C19.4939 1152.84 19.9311 1152.77 20.3743 1152.7Z" fill="#017C7F"/>
<path fill-rule="evenodd" clip-rule="evenodd" d="M649.945 1640.34C649.945 1640.34 544.884 1608.52 470.642 1471.3C495.932 1463.79 512.249 1446.45 512.249 1446.45C494.3 1451.62 461.665 1453.79 461.665 1453.79C307.224 1255.58 385.117 925.548 385.117 925.548C402.25 969.066 487.414 1031.32 556.433 1122.85C546.97 1131.36 513.696 1165.81 505.375 1179.32C505.375 1179.32 542.766 1150.01 562.672 1140.17C625.985 1224.87 673.769 1330.21 692.043 1413.25C731.858 1595.33 649.945 1640.34 649.945 1640.34Z" fill="#009BA0"/>
<path fill-rule="evenodd" clip-rule="evenodd" d="M418.077 1046.64C443.689 1118.13 470.642 1189.16 500.002 1259.12C514.778 1294.05 530.057 1328.79 547.382 1362.42C549.586 1366.61 551.656 1370.87 553.966 1374.98L560.982 1387.27C565.617 1395.48 570.57 1403.62 575.346 1411.79C584.625 1428.34 593.754 1445.01 601.726 1462.29C618.059 1496.62 630.836 1532.81 639.24 1570.06C643.506 1588.67 646.761 1607.48 649.749 1626.28C651.29 1635.66 652.686 1645.1 653.953 1654.58C655.075 1664.06 656.188 1673.53 657.094 1683.02C660.882 1720.95 663.557 1758.95 666.153 1796.95C668.682 1834.95 670.925 1872.97 672.918 1911.01C672.992 1912.4 671.953 1913.57 670.604 1913.65C669.251 1913.72 668.098 1912.66 668.024 1911.28V1911.27C666.161 1873.25 664.043 1835.24 661.647 1797.25C659.181 1759.27 656.635 1721.29 652.981 1683.44C652.11 1673.97 651.036 1664.54 649.949 1655.1C648.726 1645.72 647.373 1636.33 645.859 1626.92C642.941 1608.14 639.765 1589.41 635.589 1570.93C627.373 1533.92 614.82 1497.98 598.695 1463.77C590.828 1446.56 581.793 1429.94 572.609 1413.42C567.86 1405.24 563.001 1397.19 558.346 1388.89L551.323 1376.48C549.009 1372.33 546.947 1368.05 544.75 1363.85C527.472 1330.02 512.292 1295.18 497.622 1260.16C468.465 1190.03 441.748 1118.89 416.364 1047.27C416.191 1046.78 416.438 1046.25 416.909 1046.08C417.383 1045.9 417.909 1046.16 418.077 1046.64Z" fill="black"/>
<path fill-rule="evenodd" clip-rule="evenodd" d="M115.071 1204.93L300.818 1336.43C331.802 1358.38 361.3 1382.57 388.943 1408.8C395.958 1415.24 402.574 1422.12 409.378 1428.8C415.899 1435.76 422.676 1442.48 428.95 1449.69C441.875 1463.75 453.863 1478.68 465.42 1493.93C476.844 1509.31 487.334 1525.4 496.914 1542.07C506.141 1558.95 514.416 1576.4 520.416 1594.85C521.933 1599.44 523.082 1604.12 524.435 1608.76C525.667 1613.42 527.208 1618.01 528.172 1622.73C530.231 1632.15 532.698 1641.48 534.415 1650.96C538.215 1669.85 541.411 1688.86 544.306 1707.89C555.603 1784.11 562.478 1860.85 567.364 1937.73C567.45 1939.11 566.427 1940.31 565.078 1940.39C563.725 1940.48 562.56 1939.44 562.47 1938.05V1938.05V1938.01C557.886 1861.29 551.298 1784.55 540.317 1708.51C537.506 1689.52 534.388 1670.56 530.674 1651.75C529 1642.3 526.584 1633.02 524.572 1623.65C523.631 1618.94 522.121 1614.41 520.921 1609.78C519.6 1605.19 518.474 1600.53 516.996 1596C511.173 1577.85 503.051 1560.53 493.973 1543.78C484.541 1527.23 474.193 1511.21 462.895 1495.88C451.46 1480.68 439.593 1465.77 426.774 1451.73C420.562 1444.53 413.836 1437.81 407.366 1430.85C400.613 1424.17 394.048 1417.29 387.084 1410.84C359.629 1384.59 330.328 1360.37 299.497 1338.35L114.256 1206.13C113.93 1205.9 113.848 1205.45 114.075 1205.12C114.299 1204.78 114.746 1204.7 115.071 1204.93Z" fill="black"/>
<path fill-rule="evenodd" clip-rule="evenodd" d="M1201.98 1235.89C1138.89 1276.65 1075.44 1316.8 1012.13 1357.19L964.712 1387.48C949.222 1397.75 934.685 1409.67 920.662 1422.08C906.556 1434.43 893.423 1447.89 880.56 1461.57C874.388 1468.66 867.89 1475.46 862.07 1482.86L853.137 1493.77L844.667 1505.07C833.294 1520.07 823.251 1536.03 813.734 1552.29C811.459 1556.41 809.353 1560.63 807.153 1564.8C805.063 1569.02 802.612 1573.06 800.812 1577.42L795.126 1590.37L792.295 1596.85L789.934 1603.51L785.213 1616.84C783.565 1621.26 782.679 1625.92 781.373 1630.45C780.193 1635.01 778.907 1639.53 777.805 1644.14L774.797 1658.1L763.056 1713.99C747.836 1788.62 733.264 1863.41 719.484 1938.32C719.237 1939.68 717.962 1940.58 716.629 1940.34C715.3 1940.08 714.417 1938.77 714.66 1937.41C728.307 1862.41 742.44 1787.52 757.876 1712.88L769.679 1656.94L772.711 1642.98C773.82 1638.33 775.142 1633.69 776.346 1629.04C777.679 1624.43 778.601 1619.68 780.271 1615.19L785.087 1601.63L787.499 1594.85L790.377 1588.28L796.169 1575.14C798.001 1570.71 800.483 1566.62 802.608 1562.34C804.844 1558.12 806.981 1553.84 809.291 1549.67C818.942 1533.22 829.126 1517.08 840.624 1501.93L849.196 1490.54L858.223 1479.53C864.11 1472.07 870.67 1465.21 876.902 1458.06C889.894 1444.27 903.152 1430.7 917.403 1418.25C931.587 1405.74 946.234 1393.73 962.073 1383.26C977.959 1373.04 993.877 1363.26 1009.78 1353.25C1073.43 1313.45 1136.94 1273.41 1200.82 1233.98C1201.34 1233.65 1202.02 1233.82 1202.33 1234.35C1202.65 1234.88 1202.49 1235.56 1201.98 1235.89Z" fill="black"/>
<path fill-rule="evenodd" clip-rule="evenodd" d="M568.148 2238.07H721.805C776.518 2238.07 822.279 2231.65 827.506 2176L864.698 1780.06H425.256L462.444 2176C467.671 2231.65 513.431 2238.07 568.148 2238.07Z" fill="#F0F1FF"/>
<path d="M2123.5 0H988.224C966.566 0 949.009 17.9407 949.009 40.0716V843.507C949.009 865.638 966.566 883.579 988.224 883.579H2123.5C2145.16 883.579 2162.72 865.638 2162.72 843.507V40.0716C2162.72 17.9407 2145.16 0 2123.5 0Z" fill="#FFCC58"/>
<path d="M2115.66 48.0859H999.988V761.361H2115.66V48.0859Z" fill="white"/>
<path d="M2115.66 48.0859H999.989V761.361H2115.66V48.0859Z" fill="#FBFDFF"/>
<mask id="mask0_6_118" style="mask-type:luminance" maskUnits="userSpaceOnUse" x="994" y="53" width="1117" height="715">
<path d="M2110.06 53.8518H994.387V767.127H2110.06V53.8518Z" fill="white"/>
</mask>
<g mask="url(#mask0_6_118)">
<path fill-rule="evenodd" clip-rule="evenodd" d="M1616.38 523.725C1616.38 523.725 1603.21 608.236 1615.97 633.421C1626.13 653.477 1686.09 680.906 1686.09 680.906L1696.83 739.772L1474.22 763.113C1448.46 757.283 1355.22 732.859 1384.98 694.711C1414.74 656.543 1477.79 646.024 1488.04 629.094C1507.72 596.616 1511.31 530.598 1510.77 505.673C1510.77 499.482 1616.38 523.725 1616.38 523.725Z" fill="#09B9C6"/>
<path fill-rule="evenodd" clip-rule="evenodd" d="M1657.28 664.357C1652.74 672.972 1631.48 713.384 1606.01 716.189C1568.49 720.337 1515.06 692.687 1476.1 672.531C1457.14 662.734 1441.61 654.699 1433 652.956C1428.62 652.075 1363.65 672.591 1322.58 707.333C1310.29 717.712 1274.98 752.654 1281.49 802.964C1282.34 809.536 1278.07 832.016 1273.01 858.644C1265.06 900.479 1255.16 952.572 1260.06 969.482C1274.74 1020.11 1332.53 1023.12 1400.09 1026.1C1534.9 1032.09 1658.67 1028.13 1705.62 1026.62C1715.12 1026.3 1721.47 1026.1 1724.13 1026.1C1796.03 1026.1 1822.26 1026.1 1846.12 988.716C1816.59 910.977 1783.16 814.886 1778.01 789.22C1765.45 726.928 1728.59 703.807 1714.98 695.272C1714.76 695.132 1714.55 695.011 1714.35 694.871C1713.3 694.17 1712.23 693.489 1711.16 692.787C1710.98 692.647 1710.81 692.527 1710.66 692.407C1710.66 692.427 1710.66 692.447 1710.66 692.447C1686.71 676.939 1658.74 662.032 1658.14 662.774C1658.05 662.874 1657.76 663.435 1657.28 664.357Z" fill="#007AEB"/>
<path fill-rule="evenodd" clip-rule="evenodd" d="M1752.63 257.854C1752.63 257.854 1765.69 306.607 1762.86 326.713C1759.18 352.868 1738.89 350.596 1741.61 359.203C1750.89 388.636 1725.06 398.874 1725.06 398.874C1725.06 398.874 1719.69 370.389 1720.18 341.754C1720.67 313.117 1715.76 292.52 1715.76 292.52L1752.63 257.854Z" fill="#090E2B"/>
<path fill-rule="evenodd" clip-rule="evenodd" d="M1658.77 612.905C1720.83 607.818 1747.85 572.182 1750.82 537.682C1754.68 493.031 1743.9 459.707 1738.38 427.039C1719.24 313.798 1749.98 291.583 1648.11 270.696C1594.74 259.755 1477.2 274.156 1448.36 343.902C1437.09 371.161 1455.01 419.143 1458.15 458.405C1466.35 560.716 1583.3 619.092 1658.77 612.905Z" fill="#FDCDAC"/>
<path fill-rule="evenodd" clip-rule="evenodd" d="M1524 161.411C1450.89 172.937 1434.4 221.616 1430.68 243.001C1429.15 236.503 1428.08 229.292 1431.03 223.983C1432.1 221.863 1428.85 220.192 1427.83 222.328C1423.69 231.326 1423.7 241.418 1425.85 250.925C1417.91 249.668 1409.62 250.931 1402.65 255.2C1401.06 256.164 1402.52 258.697 1404.12 257.777C1408.8 255.723 1413.96 255.162 1419 255.755C1409.88 259.139 1396.79 266.849 1387.69 284.303C1377.9 303.091 1374.84 330.638 1379.09 352.353C1387.15 393.537 1420.22 409.397 1415.27 419.203C1400.89 447.7 1417.1 495.503 1436.31 515.533C1463.42 543.797 1492.64 549.523 1493.14 517.366C1493.64 485.211 1484.31 425.083 1492.35 419.359C1508.34 439.573 1515.67 442.057 1517.5 429.064C1521.25 402.391 1512.56 389.734 1503.06 375.559C1490.5 356.801 1539.09 350.404 1539.68 319.599C1547.04 327.807 1552.58 343.622 1581.54 351.772C1605.87 358.622 1635.81 358.811 1659.74 323.415C1677.81 354.888 1720.55 342.387 1733.66 338.941C1803.52 320.594 1778.17 185.941 1695.48 199.527C1642.83 208.178 1592.88 150.549 1524 161.411Z" fill="#090E2B"/>
<path fill-rule="evenodd" clip-rule="evenodd" d="M1504.21 437.521C1495.38 417.956 1478.85 401.447 1450.68 407.457C1421.53 413.679 1417.98 474.155 1469.74 496.034C1485.72 502.788 1491.42 499.512 1495.81 495.062C1506.1 484.609 1508.18 446.297 1504.21 437.521Z" fill="#FDCDAC"/>
<path fill-rule="evenodd" clip-rule="evenodd" d="M1457 427.361C1458.17 427.515 1459.33 427.736 1460.48 428.03C1462.77 428.613 1464.99 429.453 1467.13 430.489C1471.39 432.591 1475.31 435.576 1478.36 439.287C1479.21 440.138 1479.82 441.18 1480.53 442.142C1481.23 443.111 1481.91 444.093 1482.42 445.173C1482.98 446.223 1483.56 447.261 1484.07 448.325L1485.3 451.633L1485.9 453.284L1486.3 454.989C1486.56 456.121 1486.82 457.251 1487.05 458.381C1487.38 460.663 1487.56 462.955 1487.72 465.211C1487.78 466.008 1487.2 466.702 1486.42 466.76C1485.77 466.808 1485.19 466.405 1484.98 465.81L1484.92 465.626C1484.19 463.568 1483.69 461.49 1482.96 459.503C1482.53 458.531 1482.14 457.557 1481.75 456.589L1481.17 455.141L1480.43 453.776L1478.99 451.062L1477.28 448.551C1476.76 447.686 1476.1 446.93 1475.44 446.191C1474.75 445.468 1474.22 444.614 1473.45 443.987C1470.7 441.144 1467.41 438.962 1463.95 437.169C1463.08 436.72 1462.17 436.343 1461.28 435.92C1460.37 435.574 1459.46 435.185 1458.54 434.863C1456.73 434.197 1454.67 433.662 1453.01 433.282L1452.67 433.206C1451.04 432.831 1450.02 431.178 1450.38 429.513C1450.7 428.084 1451.94 427.111 1453.31 427.099C1454.7 427.087 1455.8 427.183 1457 427.361Z" fill="#090E2B"/>
<path fill-rule="evenodd" clip-rule="evenodd" d="M1475.35 446.229C1475.17 446.171 1474.84 446.139 1474.56 446.089C1473.91 446.053 1473.21 446.029 1472.49 446.139C1471.06 446.311 1469.63 446.76 1468.3 447.413C1466.97 448.046 1465.76 448.94 1464.67 449.97C1463.55 450.957 1462.64 452.224 1461.76 453.476L1461.63 453.65C1460.28 455.578 1457.65 456.014 1455.76 454.628C1453.88 453.241 1453.45 450.557 1454.81 448.629C1454.9 448.495 1455.02 448.347 1455.13 448.226C1456.59 446.612 1458.11 445.041 1459.94 443.791C1461.72 442.512 1463.68 441.452 1465.78 440.775C1467.87 440.08 1470.06 439.707 1472.29 439.745C1473.39 439.745 1474.54 439.912 1475.69 440.166C1476.29 440.348 1476.86 440.495 1477.53 440.819C1478.14 441.124 1478.95 441.47 1479.87 442.703C1480.72 444.001 1480.39 445.762 1479.12 446.64C1477.85 447.515 1476.13 447.177 1475.27 445.88C1475.58 446.407 1475.6 446.245 1475.35 446.229Z" fill="#090E2B"/>
<path fill-rule="evenodd" clip-rule="evenodd" d="M1565.56 598.241C1558.59 594.494 1540.93 584.304 1537.07 579.525C1535.06 577.035 1537.98 579.547 1541.37 581.539C1545.88 584.191 1563.73 594.51 1585.97 601.949C1587.9 602.594 1600.21 606.131 1600.58 606.768C1600.93 607.363 1599.89 608.603 1598.48 608.589C1589.02 608.503 1574.11 602.835 1565.56 598.241Z" fill="#090E2B"/>
<path fill-rule="evenodd" clip-rule="evenodd" d="M1559.72 380.789C1563.2 364.794 1609.03 359.188 1629.2 371.572C1636.17 375.806 1649.12 387.437 1637.66 393.768C1634.63 395.114 1631.69 393.734 1629.2 392.093C1601.71 372.574 1557.29 391.938 1559.72 380.789Z" fill="#090E2B"/>
<path fill-rule="evenodd" clip-rule="evenodd" d="M1596.9 409.704C1586.53 412.709 1577.65 421.224 1576.82 428.281C1576.32 432.545 1592.69 442.781 1608.48 443.576C1629.25 444.62 1639.73 433.122 1639.69 429.447C1638.29 418.327 1625.76 401.341 1596.9 409.704Z" fill="white"/>
<path fill-rule="evenodd" clip-rule="evenodd" d="M1629.03 416.031C1613.07 403.7 1588.34 411.735 1576.82 428.28C1576.16 429.138 1576.35 426.98 1576.81 425.996C1582.37 414.081 1592.39 408.457 1604.01 406.005C1611.01 404.528 1617.53 404.408 1624.35 407.529C1626.99 408.733 1631.65 412.404 1635.25 416.555C1638.05 419.791 1640.42 425.339 1637.17 423.378C1634.63 421.841 1631.15 417.667 1629.03 416.031Z" fill="#090E2B"/>
<path fill-rule="evenodd" clip-rule="evenodd" d="M1608.28 437.083C1617.16 437.083 1624.35 430.375 1624.35 422.098C1624.35 413.823 1617.16 407.113 1608.28 407.113C1599.4 407.113 1592.21 413.823 1592.21 422.098C1592.21 430.375 1599.4 437.083 1608.28 437.083Z" fill="#090E2B"/>
<path fill-rule="evenodd" clip-rule="evenodd" d="M1723.22 378.149C1729.79 381.13 1738.55 391.023 1731.26 391.023C1723.97 391.023 1708.19 388.911 1697.6 393.373C1693.91 394.339 1691.1 396.187 1687.39 396.637C1678.94 398.318 1674.36 387.981 1680.33 381.731C1687.07 374.67 1709.85 371.322 1723.22 378.149Z" fill="#090E2B"/>
<path fill-rule="evenodd" clip-rule="evenodd" d="M1715.77 443.011C1726.3 440.508 1734.17 430.751 1733.28 423.46C1731.55 413.798 1713.34 407.629 1703.14 412.905C1693.04 418.128 1686.72 429.799 1687.54 434.407C1688.72 437.597 1705 445.569 1715.77 443.011Z" fill="white"/>
<path fill-rule="evenodd" clip-rule="evenodd" d="M1707.05 437.744C1713.99 437.744 1719.61 432.226 1719.61 425.422C1719.61 418.616 1715.65 412.185 1707.05 413.1C1700.15 413.834 1694.49 418.616 1694.49 425.422C1694.49 432.226 1700.11 437.744 1707.05 437.744Z" fill="#090E2B"/>
<path fill-rule="evenodd" clip-rule="evenodd" d="M1687.91 427.79C1691.89 412.615 1709.85 404.811 1724.06 411.996C1726.06 413.062 1729.31 415.454 1731.74 418.343C1733.98 421.008 1733.68 422.404 1732.77 422.128C1731.26 421.667 1728.05 418.732 1725.45 417.469C1712.3 411.092 1698.61 414.67 1688.59 429.635C1688.09 430.411 1687.63 428.665 1687.91 427.79Z" fill="#090E2B"/>
<path fill-rule="evenodd" clip-rule="evenodd" d="M1688.96 485.294C1687.05 495.149 1675.2 496.108 1667.48 493.875C1661.2 492.06 1659.58 488.325 1661.7 487.128C1665.16 485.176 1676.24 490.604 1680.33 485.423C1687.62 476.183 1665.24 442.209 1672.35 447.668C1681.75 454.882 1690.24 478.717 1688.96 485.294Z" fill="#090E2B"/>
<path fill-rule="evenodd" clip-rule="evenodd" d="M1694.16 525.853C1692.65 527.012 1689.12 531.793 1685.54 534.829C1677.5 541.657 1664.42 543.227 1656.72 541.657C1642.23 538.707 1635.96 529.052 1632.13 526.408C1628.3 523.764 1635.49 520.368 1640.99 520.867C1646.49 521.365 1650.18 522.997 1660.68 527.611C1667.45 530.589 1682.77 526.408 1687.1 523.764C1695.35 518.72 1697.83 523.028 1694.16 525.853Z" fill="#090E2B"/>
</g>
<path d="M1680.37 883.573H1447.04V997.777H1680.37V883.573Z" fill="#FFCC58"/>
<path d="M1307.83 1027.83C1307.83 1011.24 1321 997.777 1337.24 997.777H1788.21C1804.45 997.777 1817.63 1011.24 1817.63 1027.83V1049.87H1307.83V1027.83Z" fill="#FFCC58"/>
<path fill-rule="evenodd" clip-rule="evenodd" d="M3026.58 1489.83H2996.32L3014.2 1836.45H2744.83L2762.71 1489.83H2732.46L2721.58 1836.45H2720.7V1862.5H2720.76L2708.93 2239.17H2724.06L2743.49 1862.5H3015.55L3034.98 2239.17H3050.1L3026.58 1489.83Z" fill="#8E2420"/>
<path fill-rule="evenodd" clip-rule="evenodd" d="M3105.57 1479.47C3105.57 1460.49 3093.29 1444.79 3077.4 1443.74C3036.14 1441.01 2955.4 1436.46 2874.76 1436.46C2798.76 1436.46 2722.85 1440.91 2683.25 1443.65C2667.4 1444.75 2655.15 1460.42 2655.15 1479.35V1499.85C2655.15 1519.77 2668.7 1535.92 2685.4 1535.92H3075.31C3092.02 1535.92 3105.57 1519.77 3105.57 1499.85V1479.47Z" fill="#007AEB"/>
<path fill-rule="evenodd" clip-rule="evenodd" d="M2642.88 1923.33C2642.88 1923.33 2662.99 2068.49 2671.2 2130.51C2679.48 2193.07 2532.23 2132.18 2532.23 2132.18C2532.23 2132.18 2558.77 2093.52 2559.18 2082.93C2559.58 2072.34 2514.25 1948.38 2514.25 1948.38L2642.88 1923.33Z" fill="#FDCDAC"/>
<path fill-rule="evenodd" clip-rule="evenodd" d="M2347.94 1122.9C2275.66 1156.66 2202.61 1241.89 2266.47 1401.66C2330.32 1561.42 2480.57 1948.12 2504.19 1965.52C2527.8 1982.92 2652.35 1948.38 2652.35 1948.38C2652.35 1948.38 2638.73 1785.97 2611.67 1626.29C2591.85 1509.35 2550.06 1424.09 2550.06 1424.09C2550.06 1424.09 2886.16 1473.09 2969.61 1415.58C3079.13 1340.08 2998.04 1136.65 2935.09 1111.46C2854.17 1079.08 2485.55 1058.63 2347.94 1122.9Z" fill="#090E2B"/>
<path fill-rule="evenodd" clip-rule="evenodd" d="M2351.73 2199.93C2362.29 2166.5 2438.87 2144.43 2494.17 2127.72C2512.78 2122.1 2538.79 2094.31 2550.86 2094.64C2568.44 2095.13 2551.21 2132.5 2610.04 2129.25C2625.62 2128.39 2626.73 2111.64 2660.57 2107.82C2666.07 2107.21 2674.48 2106.11 2681.74 2119.47C2685.79 2126.92 2702.36 2194.14 2686.09 2221.55C2572.2 2224.56 2455.04 2221.59 2353.86 2220.63C2343.97 2220.53 2349.03 2208.48 2351.73 2199.93Z" fill="#007AEB"/>
<path fill-rule="evenodd" clip-rule="evenodd" d="M2163.76 1948.38C2163.76 1948.38 2143.05 2057.59 2129.2 2075.36C2115.34 2093.12 2043.45 2113.11 2040.22 2124.09C2037 2135.06 2193.46 2160.76 2193.46 2160.76L2289.19 1957.79L2163.76 1948.38Z" fill="#FDCDAC"/>
<path fill-rule="evenodd" clip-rule="evenodd" d="M1898.79 2193.91C1909.35 2160.49 1985.93 2138.42 2041.23 2121.71C2059.85 2116.09 2085.85 2088.29 2097.92 2088.63C2115.5 2089.12 2098.28 2126.49 2157.11 2123.24C2172.68 2122.38 2173.79 2105.62 2207.64 2101.81C2213.14 2101.19 2221.55 2100.1 2228.81 2113.46C2232.85 2120.9 2249.42 2188.13 2233.15 2215.55C2119.26 2218.55 2002.11 2215.58 1900.92 2214.61C1891.04 2214.52 1896.09 2202.47 1898.79 2193.91Z" fill="#007AEB"/>
<path fill-rule="evenodd" clip-rule="evenodd" d="M2030.95 2145.59C2023.72 2130.71 2020.56 2128.12 2023.64 2125.78C2031.01 2120.18 2068.46 2137.48 2071.41 2147.78C2073.61 2155.49 2048.67 2133.16 2028.76 2129.83C2036.92 2137.45 2044.53 2160.8 2036.5 2156.14C1997.38 2133.47 1991.2 2138.73 1991.16 2137.89C1990.92 2133.88 2005.73 2130.64 2030.95 2145.59Z" fill="#FFCC58"/>
<path fill-rule="evenodd" clip-rule="evenodd" d="M3094.81 1277.18C3071.35 1401.31 2963.12 1445.9 2869.2 1442.2C2725.74 1436.53 2579.5 1371.43 2530.06 1349.67C2534.42 1381.69 2511.14 1563.74 2472.27 1647.99C2433.4 1732.24 2306.82 1985.68 2306.82 1985.68C2306.82 1985.68 2163.99 1986.54 2157.88 1951.12C2153.87 1927.82 2287.95 1276.87 2332.31 1164.17C2357.78 1099.44 2440.21 1071.51 2609.77 1056.78C2780.07 1041.99 3028.33 1069.26 3028.33 1069.26C3028.33 1069.26 3118.27 1153.04 3094.81 1277.18Z" fill="#090E2B"/>
<path fill-rule="evenodd" clip-rule="evenodd" d="M2483.88 2153.6C2476.65 2138.73 2473.49 2136.14 2476.58 2133.8C2483.95 2128.2 2521.4 2145.5 2524.34 2155.79C2526.55 2163.51 2501.61 2141.18 2481.69 2137.85C2489.86 2145.46 2497.47 2168.81 2489.43 2164.16C2450.31 2141.48 2444.14 2146.74 2444.09 2145.9C2443.86 2141.89 2458.67 2138.65 2483.88 2153.6Z" fill="#FFCC58"/>
<path fill-rule="evenodd" clip-rule="evenodd" d="M2375.79 2233.67L2649.94 2238.61C2668.28 2239.36 2695.71 2232.91 2698.37 2217.34C2700.35 2205.71 2695.94 2180.38 2695.03 2178.7C2688.64 2166.96 2634.22 2176.86 2618.37 2216.51C2518.34 2224.17 2348 2216.68 2348 2216.68C2348 2216.68 2345.44 2232.07 2375.79 2233.67Z" fill="#090E2B"/>
<path fill-rule="evenodd" clip-rule="evenodd" d="M1923.07 2226.44L2197.22 2231.38C2215.56 2232.13 2242.99 2225.69 2245.65 2210.12C2247.63 2198.49 2243.22 2173.16 2242.31 2171.47C2235.92 2159.73 2181.5 2169.64 2165.65 2209.29C2065.62 2216.94 1895.27 2209.46 1895.27 2209.46C1895.27 2209.46 1892.72 2224.85 1923.07 2226.44Z" fill="#090E2B"/>
<path fill-rule="evenodd" clip-rule="evenodd" d="M2644.23 855.588L2675.46 797.292C2675.46 797.292 2631.96 748.725 2611.65 740.265C2581.07 727.53 2567.45 729.516 2567.45 729.516C2567.45 729.516 2534.33 804.359 2528.4 866.886C2562.71 892.234 2644.23 855.588 2644.23 855.588Z" fill="#FDCDAC"/>
<path fill-rule="evenodd" clip-rule="evenodd" d="M2911.32 348.323C2911.32 348.323 2900.31 437.69 2916.97 474.238C2922.41 486.198 2963.17 496.531 2973.5 503.87C2935.81 576.823 2846.13 591.011 2820.08 591.011C2773.54 591.011 2773.54 543.535 2771.54 508.597C2787.64 503.736 2803.81 497.159 2807.36 482.846C2809.7 473.436 2801.32 403.59 2801.32 403.59L2911.32 348.323Z" fill="#FDCDAC"/>
<path fill-rule="evenodd" clip-rule="evenodd" d="M2778.46 501.473C2778.46 501.473 2784.52 560.717 2810.35 574.458C2823.7 581.554 2943.3 510.86 2955.66 492.738C2964.31 492.69 3034.64 513.477 3044.47 521.259C3054.3 529.041 3084.22 680.365 3072.09 717.604C3059.97 754.844 3019.15 751.103 3015.21 821.966C3008.77 937.975 3034.8 1080.44 3069.17 1146.42C3074.17 1156.03 3103.02 1187.89 3060.16 1204.04C3036.32 1213.02 2895.82 1134.24 2827.05 1116.62C2704.72 1085.3 2675.35 1094.73 2668.5 1090.42C2646.03 1076.28 2713.6 1040.35 2690.44 868.364C2686.83 841.574 2681.74 818.27 2677.28 798.686C2674.85 806.551 2669.73 829.624 2662.07 828.521C2628.16 823.645 2557.75 810.283 2536.83 798.357C2531.01 795.04 2569.79 693.175 2602 638.014C2625.12 598.416 2658.08 545.863 2697.42 525.846C2727.24 510.669 2778.46 501.473 2778.46 501.473Z" fill="#007AEB"/>
<path fill-rule="evenodd" clip-rule="evenodd" d="M2787.4 685.341C2787.4 685.341 2776.71 671.66 2759.97 685.343C2747.87 695.235 2744.4 726.147 2743.46 734.484C2742.52 742.824 2737.89 802.158 2751.32 819.307C2712.15 829.315 2634.69 852.14 2634.69 852.14C2634.69 852.14 2582.28 852.214 2529.61 859.138C2524.15 898.53 2520.45 973.396 2565.77 977.917C2585.86 979.921 2693 968.576 2778.76 834.592C2808.08 825.799 2809.14 809.339 2810.67 782.773C2812.36 753.33 2787.4 685.341 2787.4 685.341Z" fill="#FDCDAC"/>
<path fill-rule="evenodd" clip-rule="evenodd" d="M3168.42 754.344C3189.17 807.63 3200.55 917.204 3196.04 954.382C3185.31 1042.9 3050.18 1030.65 2913.04 934.479C2849.58 889.981 2815.83 861.849 2795.43 841.08C2781.27 826.655 2765.61 826.066 2758.9 796.817C2753.38 772.777 2755.53 717.239 2763.92 698.56C2772.31 679.879 2784.16 678.445 2791.05 677.364C2808.05 674.7 2816.28 721.619 2821.18 739.053C2822.07 733.86 2826.21 726.937 2829.5 724.506C2838.29 718.009 2843.65 721.461 2837.26 737.041C2830.53 753.428 2849.71 794.414 2830.9 812.333C2862.61 831.922 2922.3 839.293 2966.87 848.969C3007.78 857.844 3045.82 866.266 3051.34 866.769C3041.28 834.43 3017.58 777.957 3017.58 777.957C3017.58 777.957 3147.66 701.059 3168.42 754.344Z" fill="#FDCDAC"/>
<path fill-rule="evenodd" clip-rule="evenodd" d="M3100.8 882.977C3085.2 874.762 3068.43 867.074 3050.56 865.791C3049.91 865.767 3049.72 866.733 3050.35 866.94C3062.33 871.435 3075.55 876.134 3087.65 880.121C3089.36 880.276 3102.46 885.962 3100.8 882.977Z" fill="#090E2B"/>
<path fill-rule="evenodd" clip-rule="evenodd" d="M3039.66 518.806C3039.66 518.806 2965.47 609.448 2961.85 654.357C2958.24 699.266 3036.9 841.724 3040.07 841.722C3047.55 841.718 3076.49 827.426 3129.29 819.896C3181.77 812.417 3183.97 811.85 3185.16 803.837C3187.63 787.154 3143.66 648.117 3106.52 584.318C3077.77 534.914 3039.66 518.806 3039.66 518.806Z" fill="#007AEB"/>
<path fill-rule="evenodd" clip-rule="evenodd" d="M2962.94 634.487C2964.72 629.31 2961.15 622.065 2958.38 644.571C2954.66 674.771 2969.74 706.974 2985.38 743.377C2990.13 753.398 3010.64 791.61 3019.65 806.282C3022.24 810.516 3018.71 803.905 3016.02 798.093C3001.41 766.575 2954.66 684.121 2962.94 634.487Z" fill="#090E2B"/>
<path fill-rule="evenodd" clip-rule="evenodd" d="M2677.88 638.374C2652.88 689.16 2666.35 745.917 2677.23 798.684C2677.35 799.27 2677.84 799.992 2677.74 799.354C2674.28 767.642 2668.3 729.863 2668.19 698.235C2669.06 678.108 2673.72 656.794 2679.33 637.509C2679.66 636.643 2678.25 637.467 2677.88 638.374Z" fill="#090E2B"/>
<path fill-rule="evenodd" clip-rule="evenodd" d="M2778.01 681.291C2745.22 689.476 2745.62 802.122 2766.61 822.307C2771.63 827.53 2778.61 832.516 2785.26 833.7C2782.79 831.433 2778.73 830.17 2776.06 827.785C2749.65 808.562 2755.44 746.719 2759.07 717.163C2761.1 703.853 2764.55 687.675 2778.26 682.037C2778.71 681.913 2778.48 681.119 2778.01 681.291Z" fill="#090E2B"/>
<path fill-rule="evenodd" clip-rule="evenodd" d="M2647.66 847.745C2631.31 850.81 2594.05 858.049 2580.08 867.76C2579.15 868.408 2576.74 870.169 2577.61 869.734C2578.31 869.381 2580.04 868.625 2581.27 868.097C2599.38 860.375 2620.29 856.522 2638.94 850.898L2647.79 848.369C2648.14 848.275 2648.05 847.675 2647.66 847.745Z" fill="#090E2B"/>
<path fill-rule="evenodd" clip-rule="evenodd" d="M2658.87 112.733C2658.87 112.733 2645.81 161.487 2648.64 181.593C2652.32 207.747 2672.61 205.475 2669.89 214.083C2660.61 243.515 2686.44 253.754 2686.44 253.754C2686.44 253.754 2691.81 225.269 2691.32 196.633C2690.83 167.996 2695.75 147.399 2695.75 147.399L2658.87 112.733Z" fill="#090E2B"/>
<path fill-rule="evenodd" clip-rule="evenodd" d="M2752.73 467.784C2690.67 462.697 2663.66 427.061 2660.68 392.562C2656.82 347.91 2667.6 314.586 2673.12 281.918C2692.26 168.677 2661.52 146.462 2763.39 125.575C2816.76 114.634 2934.3 129.035 2963.14 198.781C2974.42 226.04 2956.49 274.022 2953.35 313.284C2945.16 415.595 2828.2 473.971 2752.73 467.784Z" fill="#FDCDAC"/>
<path fill-rule="evenodd" clip-rule="evenodd" d="M2887.5 16.2898C2960.61 27.8164 2977.1 76.4954 2980.82 97.8796C2982.35 91.382 2983.42 84.1711 2980.47 78.8616C2979.4 76.7418 2982.65 75.0708 2983.67 77.2067C2987.82 86.2047 2987.8 96.2968 2985.65 105.804C2993.59 104.548 3001.88 105.81 3008.85 110.079C3010.44 111.043 3008.98 113.576 3007.38 112.656C3002.7 110.602 2997.54 110.041 2992.5 110.634C3001.62 114.018 3014.71 121.728 3023.81 139.183C3033.6 157.97 3036.66 185.517 3032.41 207.232C3024.35 248.416 2991.29 264.276 2996.23 274.082C3010.61 302.579 2994.4 350.382 2975.19 370.412C2948.08 398.676 2918.86 404.403 2918.36 372.245C2917.86 340.09 2927.2 279.962 2919.15 274.238C2903.16 294.452 2895.83 296.937 2894 283.943C2890.25 257.27 2898.94 244.613 2908.44 230.438C2921 211.68 2872.41 205.283 2871.82 174.478C2864.46 182.686 2858.92 198.501 2829.96 206.651C2805.63 213.501 2775.7 213.69 2751.76 178.295C2733.69 209.767 2690.96 197.266 2677.84 193.82C2607.98 175.473 2633.33 40.8196 2716.02 54.4059C2768.67 63.0574 2818.62 5.42838 2887.5 16.2898Z" fill="#090E2B"/>
<path fill-rule="evenodd" clip-rule="evenodd" d="M2907.29 292.401C2916.12 272.836 2932.65 256.326 2960.82 262.337C2989.97 268.558 2993.52 329.034 2941.76 350.913C2925.78 357.667 2920.08 354.391 2915.69 349.941C2905.4 339.489 2903.32 301.176 2907.29 292.401Z" fill="#FDCDAC"/>
<path fill-rule="evenodd" clip-rule="evenodd" d="M2954.5 282.241C2953.33 282.395 2952.17 282.615 2951.02 282.91C2948.73 283.493 2946.51 284.332 2944.37 285.368C2940.11 287.47 2936.2 290.455 2933.14 294.166C2932.3 295.017 2931.68 296.059 2930.97 297.021C2930.27 297.991 2929.6 298.972 2929.08 300.052C2928.52 301.102 2927.94 302.14 2927.43 303.204L2926.2 306.512L2925.6 308.163L2925.21 309.868C2924.94 311 2924.68 312.13 2924.45 313.26C2924.12 315.542 2923.94 317.834 2923.78 320.09C2923.72 320.888 2924.31 321.581 2925.08 321.639C2925.73 321.687 2926.31 321.284 2926.52 320.689L2926.58 320.505C2927.31 318.447 2927.81 316.37 2928.54 314.382C2928.97 313.41 2929.36 312.437 2929.75 311.469L2930.33 310.02L2931.07 308.656L2932.51 305.941L2934.22 303.43C2934.74 302.565 2935.4 301.81 2936.07 301.07C2936.75 300.347 2937.28 299.493 2938.05 298.866C2940.8 296.023 2944.09 293.841 2947.56 292.048C2948.42 291.599 2949.33 291.223 2950.22 290.8C2951.13 290.453 2952.04 290.065 2952.97 289.742C2954.78 289.077 2956.83 288.542 2958.49 288.161L2958.83 288.085C2960.46 287.71 2961.48 286.057 2961.12 284.392C2960.8 282.964 2959.57 281.99 2958.19 281.978C2956.8 281.966 2955.7 282.062 2954.5 282.241Z" fill="#090E2B"/>
<path fill-rule="evenodd" clip-rule="evenodd" d="M2936.15 301.108C2936.33 301.05 2936.66 301.018 2936.94 300.968C2937.6 300.932 2938.29 300.908 2939.01 301.018C2940.44 301.19 2941.87 301.639 2943.2 302.292C2944.53 302.925 2945.75 303.819 2946.83 304.849C2947.96 305.837 2948.86 307.103 2949.75 308.355L2949.87 308.529C2951.22 310.457 2953.85 310.894 2955.74 309.507C2957.62 308.121 2958.05 305.436 2956.69 303.508C2956.6 303.374 2956.48 303.226 2956.37 303.106C2954.91 301.491 2953.39 299.92 2951.56 298.67C2949.78 297.392 2947.82 296.332 2945.72 295.654C2943.63 294.959 2941.44 294.587 2939.21 294.625C2938.11 294.625 2936.97 294.791 2935.81 295.045C2935.21 295.228 2934.64 295.374 2933.97 295.699C2933.36 296.003 2932.55 296.35 2931.64 297.582C2930.78 298.88 2931.11 300.641 2932.38 301.519C2933.65 302.395 2935.37 302.056 2936.23 300.76C2935.92 301.287 2935.9 301.124 2936.15 301.108Z" fill="#090E2B"/>
<path fill-rule="evenodd" clip-rule="evenodd" d="M2845.94 453.12C2852.91 449.373 2870.57 439.183 2874.43 434.404C2876.44 431.914 2873.52 434.426 2870.13 436.418C2865.62 439.071 2847.77 449.389 2825.53 456.828C2823.6 457.473 2811.3 461.01 2810.92 461.647C2810.58 462.242 2811.61 463.482 2813.02 463.468C2822.48 463.382 2837.39 457.714 2845.94 453.12Z" fill="#090E2B"/>
<path fill-rule="evenodd" clip-rule="evenodd" d="M2851.78 235.674C2848.3 219.679 2802.47 214.073 2782.3 226.457C2775.33 230.691 2762.38 242.322 2773.85 248.653C2776.87 250 2779.81 248.619 2782.3 246.978C2809.79 227.459 2854.21 246.823 2851.78 235.674Z" fill="#090E2B"/>
<path fill-rule="evenodd" clip-rule="evenodd" d="M2814.6 264.589C2824.97 267.594 2833.85 276.109 2834.68 283.166C2835.18 287.43 2818.81 297.666 2803.02 298.461C2782.25 299.505 2771.78 288.007 2771.81 284.332C2773.21 273.212 2785.74 256.226 2814.6 264.589Z" fill="white"/>
<path fill-rule="evenodd" clip-rule="evenodd" d="M2782.47 270.915C2798.43 258.585 2823.16 266.62 2834.68 283.165C2835.34 284.023 2835.15 281.865 2834.69 280.881C2829.14 268.966 2819.11 263.342 2807.49 260.89C2800.49 259.413 2793.97 259.293 2787.15 262.414C2784.51 263.618 2779.85 267.289 2776.25 271.44C2773.45 274.676 2771.08 280.224 2774.33 278.263C2776.87 276.726 2780.35 272.552 2782.47 270.915Z" fill="#090E2B"/>
<path fill-rule="evenodd" clip-rule="evenodd" d="M2803.22 291.968C2794.35 291.968 2787.15 285.26 2787.15 276.983C2787.15 268.708 2794.35 261.998 2803.22 261.998C2812.1 261.998 2819.29 268.708 2819.29 276.983C2819.29 285.26 2812.1 291.968 2803.22 291.968Z" fill="#090E2B"/>
<path fill-rule="evenodd" clip-rule="evenodd" d="M2688.28 233.033C2681.71 236.014 2672.95 245.908 2680.24 245.908C2687.53 245.908 2703.32 243.796 2713.9 248.258C2717.59 249.223 2720.4 251.071 2724.11 251.522C2732.56 253.203 2737.15 242.865 2731.17 236.615C2724.43 229.555 2701.65 226.207 2688.28 233.033Z" fill="#090E2B"/>
<path fill-rule="evenodd" clip-rule="evenodd" d="M2695.74 297.895C2685.2 295.393 2677.33 285.636 2678.22 278.345C2679.96 268.683 2698.16 262.514 2708.36 267.79C2718.46 273.013 2724.78 284.684 2723.96 289.292C2722.78 292.482 2706.5 300.454 2695.74 297.895Z" fill="white"/>
<path fill-rule="evenodd" clip-rule="evenodd" d="M2704.45 292.63C2697.51 292.63 2691.89 287.112 2691.89 280.307C2691.89 273.501 2695.85 267.07 2704.45 267.985C2711.35 268.719 2717.01 273.501 2717.01 280.307C2717.01 287.112 2711.39 292.63 2704.45 292.63Z" fill="#090E2B"/>
<path fill-rule="evenodd" clip-rule="evenodd" d="M2723.59 282.675C2719.61 267.5 2701.65 259.696 2687.44 266.881C2685.44 267.947 2682.19 270.339 2679.76 273.228C2677.53 275.893 2677.82 277.289 2678.73 277.013C2680.25 276.552 2683.45 273.617 2686.05 272.354C2699.21 265.977 2712.89 269.555 2722.92 284.52C2723.41 285.296 2723.87 283.55 2723.59 282.675Z" fill="#090E2B"/>
<path fill-rule="evenodd" clip-rule="evenodd" d="M2717.08 377.285C2733.88 379.289 2720.27 398.373 2728.97 400.908C2751.26 407.398 2775.46 399.523 2779.37 379.289C2781.67 367.348 2774.79 368.792 2769.29 369.29C2763.79 369.789 2736.63 370.815 2722.04 370.815C2707.89 370.815 2715 377.038 2717.08 377.285Z" fill="#090E2B"/>
<path fill-rule="evenodd" clip-rule="evenodd" d="M2737.19 311.545C2736.43 311.545 2731.36 320.406 2729.51 323.516C2723.59 333.425 2717.06 344.519 2726.69 350.897C2731.36 353.989 2746.02 349.199 2746.02 345.562C2746.02 340.028 2732.64 349.757 2729.49 344.139C2727.64 341.278 2734.56 326.766 2737.19 318.16C2738.66 313.357 2737.95 311.545 2737.19 311.545Z" fill="#090E2B"/>
<mask id="mask1_6_118" style="mask-type:luminance" maskUnits="userSpaceOnUse" x="1022" y="74" width="81" height="129">
<path d="M1102.45 74.7788H1022.83V202.568H1102.45V74.7788Z" fill="white"/>
</mask>
<g mask="url(#mask1_6_118)">
<path d="M1056.69 138.601V136.05C1059.82 136.05 1062.54 135.158 1064.84 133.372C1067.14 131.586 1068.82 129.162 1069.86 126.101C1070.9 123.039 1071.12 119.616 1070.51 115.832C1069.9 112.046 1068.25 108.112 1065.56 104.028C1063.82 101.393 1061.69 99.0547 1059.17 97.0133C1056.65 94.9704 1054.06 93.3748 1051.41 92.2264C1048.76 91.078 1046.27 90.5038 1043.92 90.5038C1040.96 90.5038 1038.84 90.9936 1037.53 91.9725C1036.23 92.9499 1035.47 94.0774 1035.25 95.3542C1035.03 96.6295 1035.14 97.8205 1035.58 98.9263C1036.19 100.456 1037.23 101.71 1038.7 102.689C1040.18 103.666 1041.81 104.645 1043.59 105.623C1045.37 106.601 1047.11 107.728 1048.81 109.005C1050.5 110.28 1051.89 111.96 1052.98 114.043C1054.06 116.126 1054.61 118.827 1054.61 122.145V170.369H1026.06V110.661C1026.06 105.133 1027.04 100.583 1029 97.0104C1030.95 93.4383 1033.47 90.6322 1036.55 88.5908C1039.64 86.5501 1042.96 85.1045 1046.53 84.254C1050.09 83.4042 1053.48 82.9786 1056.69 82.9786C1064.86 82.9786 1072.14 84.0636 1078.52 86.2334C1084.91 88.4018 1089.95 91.3997 1093.64 95.2272C1097.34 99.0533 1099.19 103.476 1099.19 108.494C1099.19 113.852 1097.51 118.806 1094.17 123.357C1090.82 127.907 1085.98 131.585 1079.63 134.391C1073.29 137.198 1065.64 138.601 1056.69 138.601Z" fill="#025CD7"/>
</g>
<mask id="mask2_6_118" style="mask-type:luminance" maskUnits="userSpaceOnUse" x="1055" y="120" width="89" height="70">
<path d="M1143.2 120.945H1055.47V189.826H1143.2V120.945Z" fill="white"/>
</mask>
<g mask="url(#mask2_6_118)">
<path d="M1058.58 170.403V140.167H1072.71C1074.79 140.167 1076.7 140.613 1078.42 141.505C1080.14 142.398 1081.51 143.637 1082.52 145.222C1083.54 146.805 1084.05 148.634 1084.05 150.707C1084.05 152.637 1083.58 154.371 1082.64 155.912C1081.69 157.452 1080.46 158.696 1078.93 159.646L1081.4 163.752C1081.55 163.952 1081.72 164.11 1081.91 164.225C1082.1 164.341 1082.36 164.398 1082.68 164.398H1085.42V170.403H1081.09C1079.77 170.403 1078.56 170.093 1077.47 169.474C1076.38 168.855 1075.53 168.041 1074.91 167.033L1071.6 161.288C1071.4 161.288 1071.18 161.288 1070.96 161.288C1070.74 161.288 1070.51 161.288 1070.28 161.288H1066V170.403H1058.58ZM1066 155.283H1071.87C1072.72 155.283 1073.51 155.104 1074.25 154.744C1074.99 154.384 1075.57 153.866 1075.99 153.191C1076.42 152.515 1076.63 151.701 1076.63 150.75C1076.63 149.8 1076.41 148.987 1075.97 148.309C1075.53 147.633 1074.95 147.114 1074.23 146.754C1073.51 146.395 1072.72 146.214 1071.87 146.214H1066V155.283Z" fill="#025CD7"/>
<path d="M1086.08 170.403L1096.09 143.667C1096.6 142.341 1097.42 141.34 1098.56 140.663C1099.71 139.986 1101.01 139.647 1102.45 139.647C1103.89 139.647 1105.18 139.972 1106.33 140.62C1107.48 141.268 1108.3 142.269 1108.81 143.623L1118.87 170.403H1110.88L1108.94 164.571H1095.83L1093.8 170.403H1086.08ZM1097.73 158.567H1107.04L1103.11 146.517C1103.05 146.344 1102.97 146.222 1102.87 146.151C1102.77 146.078 1102.64 146.041 1102.49 146.041C1102.35 146.041 1102.22 146.084 1102.12 146.171C1102.01 146.258 1101.95 146.373 1101.92 146.517L1097.73 158.567Z" fill="#025CD7"/>
<path d="M1136.56 170.403C1134.03 170.403 1131.75 170.022 1129.72 169.26C1127.69 168.497 1125.97 167.424 1124.56 166.04C1123.15 164.657 1122.06 163.052 1121.29 161.224C1120.53 159.395 1120.14 157.415 1120.14 155.283C1120.14 153.154 1120.53 151.176 1121.29 149.348C1122.06 147.519 1123.15 145.913 1124.58 144.529C1126.01 143.146 1127.73 142.074 1129.74 141.312C1131.76 140.549 1134.03 140.167 1136.56 140.167H1141.33V146.214H1136.74C1135.35 146.214 1134.1 146.445 1132.96 146.907C1131.83 147.367 1130.86 148.008 1130.05 148.829C1129.24 149.648 1128.62 150.605 1128.2 151.7C1127.77 152.795 1127.56 153.989 1127.56 155.283C1127.56 156.58 1127.77 157.775 1128.2 158.87C1128.62 159.965 1129.24 160.923 1130.05 161.744C1130.86 162.563 1131.83 163.204 1132.96 163.665C1134.1 164.126 1135.35 164.355 1136.74 164.355H1141.33V170.403H1136.56Z" fill="#025CD7"/>
</g>
<mask id="mask3_6_118" style="mask-type:luminance" maskUnits="userSpaceOnUse" x="1247" y="120" width="12" height="70">
<path d="M1258.66 120.945H1247.15V189.641H1258.66V120.945Z" fill="white"/>
</mask>
<g mask="url(#mask3_6_118)">
<path d="M1253.3 170.362C1252.13 170.362 1251.12 169.951 1250.28 169.13C1249.44 168.309 1249.02 167.336 1249.02 166.213C1249.02 165.061 1249.44 164.074 1250.28 163.252C1251.12 162.431 1252.13 162.02 1253.3 162.02C1254.45 162.02 1255.44 162.431 1256.28 163.252C1257.12 164.074 1257.54 165.061 1257.54 166.213C1257.54 166.961 1257.35 167.652 1256.97 168.287C1256.58 168.921 1256.08 169.424 1255.44 169.799C1254.81 170.174 1254.1 170.362 1253.3 170.362Z" fill="#FFDB48"/>
</g>
<mask id="mask4_6_118" style="mask-type:luminance" maskUnits="userSpaceOnUse" x="1138" y="120" width="111" height="70">
<path d="M1248.1 120.945H1138.67V189.826H1248.1V120.945Z" fill="white"/>
</mask>
<g mask="url(#mask4_6_118)">
<path d="M1157.31 170.403C1155.43 170.403 1153.77 169.993 1152.35 169.174C1150.92 168.353 1149.8 167.251 1148.99 165.87C1148.18 164.487 1147.78 162.945 1147.78 161.244V146.214H1139.4V140.166H1163.53V146.214H1155.19V161.894C1155.19 162.556 1155.43 163.132 1155.9 163.622C1156.37 164.111 1156.96 164.355 1157.66 164.355H1160.09V170.403H1157.31Z" fill="#025CD7"/>
<path d="M1175.14 170.403C1173.4 170.403 1171.83 170.007 1170.41 169.217C1169 168.425 1167.88 167.359 1167.04 166.02C1166.2 164.68 1165.78 163.16 1165.78 161.461C1165.78 160.196 1166.07 159.008 1166.64 157.9C1167.22 156.791 1167.99 155.833 1168.96 155.026C1168.02 154.247 1167.28 153.326 1166.73 152.262C1166.19 151.197 1165.92 150.074 1165.92 148.892C1165.92 147.223 1166.33 145.732 1167.15 144.422C1167.97 143.111 1169.08 142.074 1170.46 141.312C1171.84 140.549 1173.37 140.166 1175.05 140.166H1188.07V146.214H1176.2C1175.64 146.214 1175.12 146.344 1174.65 146.604C1174.18 146.862 1173.81 147.207 1173.53 147.64C1173.25 148.071 1173.11 148.575 1173.11 149.152C1173.11 149.698 1173.25 150.195 1173.53 150.641C1173.81 151.087 1174.18 151.433 1174.65 151.679C1175.12 151.924 1175.64 152.046 1176.2 152.046H1186.57V158.094H1176.42C1175.8 158.094 1175.24 158.238 1174.74 158.526C1174.24 158.813 1173.84 159.187 1173.55 159.649C1173.26 160.109 1173.11 160.641 1173.11 161.244C1173.11 161.822 1173.26 162.348 1173.55 162.823C1173.84 163.298 1174.24 163.665 1174.74 163.925C1175.24 164.183 1175.8 164.312 1176.42 164.312H1188.07V170.403H1175.14Z" fill="#025CD7"/>
<path d="M1192.48 170.403V140.166H1206.6C1208.69 140.166 1210.6 140.613 1212.32 141.505C1214.04 142.398 1215.41 143.637 1216.42 145.222C1217.44 146.805 1217.95 148.634 1217.95 150.707C1217.95 152.637 1217.47 154.371 1216.53 155.912C1215.59 157.452 1214.36 158.696 1212.82 159.646L1215.3 163.752C1215.45 163.952 1215.61 164.11 1215.8 164.225C1216 164.341 1216.25 164.398 1216.58 164.398H1219.31V170.403H1214.99C1213.66 170.403 1212.46 170.093 1211.37 169.474C1210.28 168.855 1209.43 168.041 1208.81 167.033L1205.5 161.288C1205.29 161.288 1205.08 161.288 1204.86 161.288C1204.64 161.288 1204.41 161.288 1204.18 161.288H1199.9V170.403H1192.48ZM1199.9 155.283H1205.76C1206.62 155.283 1207.41 155.104 1208.15 154.744C1208.88 154.384 1209.46 153.866 1209.89 153.191C1210.32 152.515 1210.53 151.701 1210.53 150.75C1210.53 149.8 1210.31 148.986 1209.87 148.309C1209.43 147.633 1208.85 147.114 1208.13 146.754C1207.4 146.395 1206.62 146.214 1205.76 146.214H1199.9V155.283Z" fill="#025CD7"/>
<path d="M1222.84 170.403V164.355H1236.04C1236.62 164.355 1237.15 164.212 1237.63 163.925C1238.1 163.636 1238.47 163.263 1238.75 162.803C1239.03 162.341 1239.17 161.836 1239.17 161.288C1239.17 160.713 1239.03 160.196 1238.75 159.735C1238.47 159.274 1238.1 158.899 1237.63 158.61C1237.15 158.322 1236.62 158.177 1236.04 158.177H1231.27C1229.48 158.177 1227.84 157.832 1226.37 157.141C1224.9 156.451 1223.73 155.436 1222.86 154.097C1222 152.758 1221.56 151.153 1221.56 149.282C1221.56 147.439 1221.97 145.841 1222.8 144.486C1223.62 143.132 1224.74 142.074 1226.15 141.312C1227.56 140.549 1229.12 140.166 1230.83 140.166H1244.47V146.214H1231.67C1231.14 146.214 1230.65 146.344 1230.21 146.604C1229.77 146.862 1229.43 147.207 1229.19 147.64C1228.96 148.071 1228.84 148.546 1228.84 149.065C1228.84 149.583 1228.96 150.05 1229.19 150.467C1229.43 150.885 1229.77 151.223 1230.21 151.483C1230.65 151.743 1231.14 151.873 1231.67 151.873H1236.66C1238.63 151.873 1240.34 152.241 1241.8 152.975C1243.25 153.708 1244.39 154.731 1245.19 156.042C1246 157.352 1246.41 158.886 1246.41 160.641C1246.41 162.715 1245.99 164.479 1245.15 165.933C1244.31 167.388 1243.19 168.497 1241.77 169.26C1240.36 170.022 1238.8 170.403 1237.1 170.403H1222.84Z" fill="#025CD7"/>
</g>
</svg>
