<svg width="676" height="1193" viewBox="0 0 676 1193" fill="none" xmlns="http://www.w3.org/2000/svg">
<path fill-rule="evenodd" clip-rule="evenodd" d="M400.389 1112.84C400.389 1156.97 372.461 1192.76 338 1192.76C303.539 1192.76 275.612 1156.97 275.612 1112.84C275.612 1068.7 303.539 1032.91 338 1032.91C372.461 1032.91 400.389 1068.7 400.389 1112.84Z" fill="white"/>
<path fill-rule="evenodd" clip-rule="evenodd" d="M334.366 822H345.366V0H334.366V822Z" fill="#090E2B"/>
<path fill-rule="evenodd" clip-rule="evenodd" d="M323.281 800.388C292.386 870.596 206.161 1021.46 4.05942 1128.75C-2.66938 1132.33 -0.547798 1143.92 6.85874 1143.92H669.143C676.55 1143.92 678.672 1132.33 671.932 1128.75C469.831 1021.46 383.616 870.596 352.711 800.388C346.568 786.425 329.434 786.425 323.281 800.388Z" fill="#0084FF"/>
</svg>
