<svg xmlns="http://www.w3.org/2000/svg" xmlns:xlink="http://www.w3.org/1999/xlink" width="2000" zoomAndPan="magnify" viewBox="0 0 1500 1499.999933" height="2000" preserveAspectRatio="xMidYMid meet" version="1.0"><defs><g/><clipPath id="fd5099c0ed"><path d="M 29.792969 703.140625 L 174.382812 703.140625 L 174.382812 847.726562 L 29.792969 847.726562 Z M 29.792969 703.140625 " clip-rule="nonzero"/></clipPath><clipPath id="3998c55144"><path d="M 102.089844 703.140625 C 62.160156 703.140625 29.792969 735.507812 29.792969 775.433594 C 29.792969 815.359375 62.160156 847.726562 102.089844 847.726562 C 142.015625 847.726562 174.382812 815.359375 174.382812 775.433594 C 174.382812 735.507812 142.015625 703.140625 102.089844 703.140625 Z M 102.089844 703.140625 " clip-rule="nonzero"/></clipPath><clipPath id="6a13064fda"><path d="M 0.792969 0.140625 L 145.382812 0.140625 L 145.382812 144.726562 L 0.792969 144.726562 Z M 0.792969 0.140625 " clip-rule="nonzero"/></clipPath><clipPath id="e025109e5a"><path d="M 73.089844 0.140625 C 33.160156 0.140625 0.792969 32.507812 0.792969 72.433594 C 0.792969 112.359375 33.160156 144.726562 73.089844 144.726562 C 113.015625 144.726562 145.382812 112.359375 145.382812 72.433594 C 145.382812 32.507812 113.015625 0.140625 73.089844 0.140625 Z M 73.089844 0.140625 " clip-rule="nonzero"/></clipPath><clipPath id="8ce967d9a7"><rect x="0" width="146" y="0" height="145"/></clipPath><clipPath id="0f4a9c4ec1"><rect x="0" width="518" y="0" height="850"/></clipPath></defs><g transform="matrix(1, 0, 0, 1, 533, 325)"><g clip-path="url(#0f4a9c4ec1)"><g fill="#025cd7" fill-opacity="1"><g transform="translate(0.928683, 636.467463)"><g><path d="M 219.078125 -211.4375 L 219.078125 -228.421875 C 239.460938 -228.421875 257.15625 -234.363281 272.15625 -246.25 C 287.15625 -258.144531 298.050781 -274.28125 304.84375 -294.65625 C 311.632812 -315.039062 313.050781 -337.828125 309.09375 -363.015625 C 305.132812 -388.203125 294.378906 -414.382812 276.828125 -441.5625 C 265.503906 -459.113281 251.632812 -474.679688 235.21875 -488.265625 C 218.800781 -501.847656 201.957031 -512.460938 184.6875 -520.109375 C 167.425781 -527.753906 151.148438 -531.578125 135.859375 -531.578125 C 116.617188 -531.578125 102.75 -528.320312 94.25 -521.8125 C 85.757812 -515.300781 80.804688 -507.796875 79.390625 -499.296875 C 77.972656 -490.804688 78.679688 -482.882812 81.515625 -475.53125 C 85.484375 -465.34375 92.273438 -456.992188 101.890625 -450.484375 C 111.515625 -443.972656 122.128906 -437.460938 133.734375 -430.953125 C 145.347656 -424.441406 156.671875 -416.9375 167.703125 -408.4375 C 178.742188 -399.945312 187.800781 -388.765625 194.875 -374.890625 C 201.957031 -361.023438 205.5 -343.054688 205.5 -320.984375 L 205.5 0 L 19.53125 0 L 19.53125 -397.40625 C 19.53125 -434.195312 25.898438 -464.476562 38.640625 -488.25 C 51.378906 -512.03125 67.796875 -530.710938 87.890625 -544.296875 C 107.984375 -557.890625 129.632812 -567.515625 152.84375 -573.171875 C 176.050781 -578.835938 198.128906 -581.671875 219.078125 -581.671875 C 272.296875 -581.671875 319.707031 -574.453125 361.3125 -560.015625 C 402.925781 -545.578125 435.757812 -525.617188 459.8125 -500.140625 C 483.875 -474.671875 495.90625 -445.238281 495.90625 -411.84375 C 495.90625 -376.175781 485.003906 -343.195312 463.203125 -312.90625 C 441.410156 -282.625 409.851562 -258.140625 368.53125 -239.453125 C 327.207031 -220.773438 277.390625 -211.4375 219.078125 -211.4375 Z M 219.078125 -211.4375 "/></g></g></g><g clip-path="url(#fd5099c0ed)"><g clip-path="url(#3998c55144)"><g transform="matrix(1, 0, 0, 1, 29, 703)"><g clip-path="url(#8ce967d9a7)"><g clip-path="url(#6a13064fda)"><g clip-path="url(#e025109e5a)"><path fill="#ffdb48" d="M 0.792969 0.140625 L 145.382812 0.140625 L 145.382812 144.726562 L 0.792969 144.726562 Z M 0.792969 0.140625 " fill-opacity="1" fill-rule="nonzero"/></g></g></g></g></g></g></g></g></svg>