<?xml version="1.0" encoding="UTF-8"?>
<svg id="Layer_2" data-name="Layer 2" xmlns="http://www.w3.org/2000/svg" viewBox="0 0 1587 2245">
  <defs>
    <style>
      .cls-1 {
        fill: #010101;
      }

      .cls-2 {
        fill: #fcfcfc;
      }

      .cls-3 {
        fill: #0a0605;
      }

      .cls-4 {
        fill: #fb9e81;
      }

      .cls-5 {
        fill: #fa9d7f;
      }

      .cls-6 {
        fill: #fd8b7b;
      }

      .cls-7 {
        fill: #5369ac;
      }

      .cls-8 {
        fill: #fdbba2;
      }

      .cls-9 {
        fill: #fdbaa1;
      }

      .cls-10 {
        fill: #fc8b7a;
      }

      .cls-11 {
        fill: #546caf;
      }

      .cls-12 {
        fill: #fcb89f;
      }

      .cls-13 {
        fill: #020101;
      }

      .cls-14 {
        fill: #4a3430;
      }

      .cls-15 {
        fill: #fdfcfc;
      }

      .cls-16 {
        fill: #030202;
      }
    </style>
  </defs>
  <path class="cls-14" d="M1524.08,1392.57c-33.57-129.49-141.96-246.69-275.85-272.1-2.01-123.13-30.78-248.13-72.2-363.53-77.58-216.07-234.6-512.01-514.55-428.15-11.53,3.45-34.91,15.52-43.75,16.52-5.67.62-10.33-2.01-15.74-2.07-198.39-1.99-332.05,143.37-374.84,326.57-42.63,182.55-17.97,380.13,40.64,556-54.56,43.45-104.43,98.05-129.83,164.12-29.17,75.89-32.84,161.85-7.96,239.43l3.71,3.09c32.8-32.38,67.25-64.85,107.96-88.51l6.56-8.74c-1.64-15.04-3.79-39.26-2.37-59.71,3.83-54.6,26.63-121.55,61.22-163.84,5.01-6.12,9.64-7.2,5.07,1.56-28.75,44.05-50.29,92.92-57.33,147.16-2.79,21.49-6.34,50.05,3.43,68.84l8.7-1.92c66.09-33.35,132.52-65.97,199.25-97.85,6.26,4.67,11.75,6.54,16.46,5.61l4.45,2.19c16.16-8.66,32.32-17.32,48.46-25.97l1.08-2.09,2.13-4.17,4.23-4.17c9.04-52.53-2.43-93.2-35.23-135.49-3.23-9.32-7.6-16.86-13.09-22.6l-4.33-8c-51.21-37.58-86.44-91.59-107.92-148.82-3.53-10.81-13.73-13.96-30.58-9.44-59.45-5.21-113.95-165.66-15.58-143.59l6.18-.94c4.17-91.13,45.18-168.75,98.03-241.16,36.69-50.27,79.16-97.19,135.85-124.14,23.16,74.43,99.69,124,173.5,137.37,17.53,3.17,46.36,2.27,26.97-19.95-39.38-6.66-78.4-15.08-111.93-40.98,33.28,13.53,68.92,19.47,104.57,22.38,126.9,1.78,266.06,21.05,288.24,170.8,1.62,5.69,5.05,4.65,10.01,2.19,48.66-39.5,58.83,27.15,58.73,63.28-.12,44.61-9,78.2-58.45,88.37-13.7,101.3-60.39,197.93-148.46,254.19l-6.04,8.46c-5.31,2.37-.76,32.48,1.24,33.53.02.02.06.02.08.04.76.38,1.73.48,2.69.5l-3.53,3.51c.02.32.04.68.06,1.04,1.1,17.42,9.38,80.31,17.4,90.03,12.55,15.2,73.59,39.42,91.49,45.84l8.8-.2c4.47,1.2,9.32-1.24,14.56-7.38,82.57,31.68,165.6,64.5,241.32,110.04,54,32.46,102.04,76.21,131.32,132.68,1.48,1.14,2.95,2.33,4.31,3.61,2.77,2.61,67.23.86,76.27.52,1.82-.06,3.53-.38,5.11-1.1,6.74-5.21,20.57-58.61,23.08-70.08,15.18-69.96,14.36-133.5-3.61-202.78ZM1520.63,1527.2l-10.59-76.52c-26.97-137.87-106.79-242.46-237.37-295.55-10.51-4.27-28.11-3.85-24.54-18.53,115.9,23.08,213.89,122.09,251.96,231.87,17.6,50.71,25.38,105.17,20.53,158.73Z"/>
  <path class="cls-8" d="M468.64,1665.43c2.51-3.88,4.83-5.09,9.34-4.97,12.46-24.7,26.03-50.77,40.72-78.22,9.22-18.52,17.23-37.81,19.95-58.34l10.06-127.54c4.89-49.63-8.47-93.59-39.07-131.65-10-16.33-4.85-37.47,13.93-44.05,55.34-19.39,108.98,84.55,97.44,130.89-28.75,32.46-3.46,11.8,15.07-7.64,50.44-45.62,163.23-129.66,236.22-117.68,30.96,5.08,40.42,36.54,14.8,55.21-46.14,27.07-92.01,54.96-137.61,83.7-9.34.39-13.35,3.02-12.02,7.89,29.19-7.14,58.59-9.05,88.2-5.73,25.06,5.62,47.94,50.22,19.5,65.05-6.5.88-72.57,11.39-38.57,11.72,43.48-16.95,84.56-8.72,62.82,48.3,11.78,24.17-5.52,45.72-20.59,63.89-11.11,13.4-24.86,25.16-38.26,36.32-29.28,17.55-52.52,39.86-69.7,66.9,4.25.53,6.34,2.51,6.27,5.93,1.75.57,1.72,1.24,0,2-93.48-.02-187.05.03-280.53,0-2.62-3.02-1.35-4.21,2-2Z"/>
  <path class="cls-7" d="M1504.61,1665.43c-2.39,1.85-3.46,2.65-6.82,2.13l-750.63-.13v-2l-.66-7.05c20.34-28.12,45.51-52.14,75.51-72.07,23.21-17.26,39.35-39.16,52.58-63.76l4.83.65,3.5-6.44c53.48-16.26,99.77-46.8,140.17-87.15l8.62-2.56c2.56-2.4,12.4-11.9,14.65-11.69,71.88,27.79,144.04,55.92,211.83,92.77,69.98,38.04,129.5,83.59,166.25,156.31l80.18.98Z"/>
  <path class="cls-11" d="M482.67,1435.07c8.14,4.33,16.28,10.95,24.42,19.87,11.42,7.6,20.65,16.33,27.68,26.21,7.88,11.16,3.9,34.11.66,47.85-11.66,38.08-28.23,74.38-49.7,108.9-3.96,11.45-9.65,20.63-17.08,27.54-.23.58-1.56,1.24-2,2-119.53-.04-239.15.04-358.67-.01-2.62-2.39,18.09-28.75,20.88-32.27,1.46-1.84.79-5.29,1.15-5.78.2-.27,4.05-.56,6.05-2.87,32.46-37.53,69.85-65.73,112.17-91.28.95-6.47,3.86-8.22,10.02-6.01,66.48-38.58,137.62-69.02,206.39-103.34,3.63-2,15.22,6.53,18.04,9.19Z"/>
  <path class="cls-8" d="M494.69,1242.76c-40.63-27.83-74.14-68.75-97.23-112.13-4.19-7.87-20.59-49.74-22.98-51.23-2.9-1.81-15.47,1.43-21.11,1.2-48.12-1.97-77.64-78.85-75.09-119.24,1.88-29.9,37.18-42.16,62.1-31.1-.62-93.51,53.14-186.68,109.43-258.19,33.87-43.03,75.2-89.37,127.91-108.32,17.31,44,45.95,79.36,86.68,103.72,23.79,14.23,78.55,35.84,105.7,34.36,6.83-.37,13.01-7.16,7.16-12.98-3.06-3.05-32.4-6.07-40.13-7.95-36.24-8.8-71.52-28.35-98.16-54.11-.32-1.49,2.05-1.35,2.96-.97,6.38,2.66,15.13,9.55,23.14,12.93,98.63,41.71,211.43,7.96,306.56,60.12,53.66,29.42,79.55,80.57,90.15,139.26,61.99-52.34,71.07,37.52,68.2,81.23-2.59,39.35-18.22,66.29-59.3,72.93-12.39,106.13-64.36,204.74-157.21,260.5l-4.24.5c-17.51-41.02-60.18-33.88-96.25-22.88-51.46,15.7-95.77,44.01-137.11,76.4-11.8,4.79-51.29,2.55-58.01-10.19-12.33-48.64-82.2-123.39-118.42-53.73l-4.78-.12Z"/>
  <path class="cls-4" d="M913.49,1252.78c1.94,6.63,2.61,25.28,4.01,34.05l-2.18,3.4c-32.79,29.83-75.82,55.61-118.05,68.72,8.62-2.52,17.16-4.88,26.27-4.01l2.79,4.01c2.89-6.32,18.74,3.65,23.01,7.29,17.31,14.76,25.71,41.25,16.39,62.39,26.13,15.76,23.33,39.05,17.63,64.48l.92,24.69-4.85,5.42c-3.35,2.31-12.01,20.54-16.37,26.7-33.67,47.66-89.94,65.9-115.88,115.52l-11.98-2.95c16.54-40.17,55.68-56.26,86.15-84.16,17.19-15.74,51.87-49.4,47.95-74.04-.68-4.29-4-7.13-3.84-11.92.46-13.98,15.17-28.35-.96-45.38-16.71-17.64-46.29,2.32-66.43,1.99-5.15-.09-6.34-6.37-3.91-10.01,3.35-5.02,41.35-7.55,49.72-10.39,21.54-7.31,6.83-49.11-16.51-56.65-13.64-4.41-40.18-2.26-55.12-.93-6.55.58-32.87,6.63-35.83,5.81-5.22-1.44-4.17-10.32.79-12.8,3.41-1.71,8.07-1.05,12.68-3.34,19.16-9.52,41.52-27.77,60.79-39.38,17.41-10.49,73.81-37.62,82.78-51.46,9.48-14.62,2.85-31.11-12.93-37.17-45.01-17.26-134.31,32.82-172.06,58.56-33.28,22.7-64.32,49.06-92.43,77.86-4.96,4.1-12.64,1.96-10.84-4.77,2.32-8.7,14.52-5.29,13.81-26.45-1.37-40.83-35.07-115.34-83.24-115.28-14.88.02-27.24,9.66-27.21,25.21.03,15.03,17.58,31.96,25.04,45.23,30.12,53.52,17.85,112.85,13.2,171.13-2.52,31.6-.38,59.68-11.68,90.48-13.49,36.77-38.31,73.53-54.25,109.58l-12.24,1.23c21.11-53.51,60.1-96.66,66.11-157.27.86-8.7-.71-18.29.02-27.02-2.51-17.99-4.98-53.52,1.06-69.95.78-2.13,1.83-4.16,2.95-6.17,1.46-31.47,7.37-48.93-3-82.14-9.58-30.68-34.63-49.22-41.09-80.12,8.06-11.22,9.46-21.22,23.56-27.53,38.14-17.06,74.97,21.03,91.35,51.87,2.99,5.63,12.36,30.54,14.16,31.92,5.26,4.05,41.02,7.37,47.84,5.41,5.59-1.61,34.42-25.76,42.89-31.24,39.55-25.61,125.71-69.37,172.02-50.53,4.22,1.72,8.77,4.83,12.02,8.02,2.21,2.17,14.4,20.22,14.96,22.11Z"/>
  <path class="cls-9" d="M917.5,1286.83c2.9,18.25,8.57,80.18,17.06,92.12,3.11,4.37,22.36,14.76,28.27,17.82,22.14,11.45,46.6,19.09,68.89,30.29-32.65,30.55-60.54,55.51-101.44,75.88-12.73,6.34-42.17,14.3-50.85,20.27,2.41-10.02-.54-19.83-.14-29.06.83-19.22,10.93-30.57-2.99-50.94-3.24-4.73-14.94-12.32-15.02-13.32-.16-2.22,3.52-8.02,3.95-12.01,2.02-18.71-5.23-39.84-21.21-50.58-2.13-1.43-16.47-8.35-17.7-8.35h-29.06l72.75-38.44c10.19-7.02,20.8-13.87,30.38-21.71,4.44-3.64,11.17-15.1,17.09-11.96Z"/>
  <path class="cls-13" d="M640.32,543.87c2.4-.63,4.2-.34,5.62,1.83,50.47,67.96,145.01,58.91,220.21,68.32,64.81,8.11,161.26,26.2,185.68,96.82,2.72,7.85,11.19,34.84-1.36,36.98-9.22,1.57-8.14-18.4-9.21-22.4-26.81-100.95-193.29-94.35-274.79-105.9-36.56-5.18-79.3-16.44-108.42-39.85-5.74-4.62-35.35-31.21-17.73-35.8Z"/>
  <path class="cls-13" d="M488.19,534.16c6.24-.8,29.13-2.97,30.42,4.73,1.35,8.03-29.26,9.59-36.35,11.37-84.98,21.31-131.58,115.6-150.91,193.69-2.81,11.36-6.31,42.7-10.07,50.03-4.51,8.78-12.83,2.76-12.79-6.66.15-36.8,23.81-104.19,41.16-137.25,26.52-50.54,78.46-108.26,138.54-115.91Z"/>
  <path class="cls-16" d="M227.2,888.22c7.43-2.35,8.08,10.26,8.75,15.25,11.4,84,16.66,153.93,39.29,237.16,4.47,16.44,17.84,46.51,19.03,61.31.58,7.3-4.65,14.22-11.14,8.94-3.34-2.72-23.6-71.71-26.32-81.87-16.2-60.48-39.7-173.33-32.73-233.9.27-2.35.47-6.06,3.12-6.9Z"/>
  <path class="cls-13" d="M1333.66,1285.14c2.74-.24,24.27,21.69,27.72,25.7,50.41,58.7,88.82,183.68,64.15,258.49-1.88,5.7-5.25,13.86-12.23,8.13-5.55-4.55,2.47-28.62,3.14-37.26,5.76-75.02-17.47-159.17-64.15-218.26-3.78-4.78-25.26-26.62-25.76-28.47-1.19-4.37,3.45-8.02,7.15-8.33Z"/>
  <path class="cls-13" d="M258.24,1529.22c-3.4,1.97-6.67,3.99-10.02,6.01-6.34,1.15-3.38-3.14-4.04-6.88-11.11-62.89,10.37-141.42,43.28-195.29,3.21-5.25,25.65-44.54,30.64-24.78,1.08,4.3-18.4,32.34-22.12,39.3-29.35,54.83-45.38,119.22-37.73,181.63Z"/>
  <path class="cls-12" d="M538.78,1405.02c-1.16,25.05-1.92,51.05-4.01,76.12-18.09-11.71-34.35-26.46-50.16-41.08-1.55-1.43-1.54-4.61-1.94-4.99l56.11-30.05Z"/>
  <path class="cls-16" d="M565.9,391.44c8.91-2.67,10.11,13.58,10.91,19.04,3.07,20.92,1.81,43.13,6.23,64.08.16,7.1-7.54,12.58-12.37,6.16-2.01-2.67-7.63-58.19-7.93-66.18-.17-4.7-1.42-21.73,3.16-23.1Z"/>
  <path class="cls-10" d="M544.39,982.95c23.61-2.12,50.89,2.91,66.47,22.49,30.48,38.31-14.19,78.71-53.29,82.83-98.75,10.4-109.21-96.7-13.18-105.32Z"/>
  <path class="cls-6" d="M911,924.77c39.75-5.04,79.61,13.18,67.68,59.64-13.99,54.49-129.99,65.46-133.42,5-2.03-35.77,33.61-60.57,65.74-64.65Z"/>
  <path class="cls-10" d="M824.73,1066.85c18.03-5.38,8.8,16.03,4.2,24.27-24.24,43.42-74.6,59.68-121.82,48.46-9.41-2.24-53.56-21.03-55.8-28.43-6.45-21.32,26.79-7.49,36.78-6.64,37.75,3.22,81.2-3.25,114.53-21.66,5.09-2.81,20.81-15.61,22.11-16Z"/>
  <path class="cls-1" d="M586.87,950.3c-33,16.15-59.89-30.18-38.98-58.67-24.25,3.03-44.68,18.91-54.77,40.55l-4.43,2.09c-3.97,3.53-5.74.95-9,.1-6.91-1.8-25.15-3.71-20.05-12.13,8.87-1.27,16.98,6.29,23.03-3-5.8.81-24.99-11.96-11.24-10.81,7.32.61,13.47,5.39,19.26-3.21-5.92-2.2-11.07-3.14-10-11,6.07-.96,10.34,5.43,16.58,3.71,1.76-.49,12.34-10.63,16.88-13.34,25.77-15.37,77.07-20.88,94.48,8.91,10.64,18.2-.51,52.75-21.74,56.79Z"/>
  <path class="cls-1" d="M809.29,884.2c-3.02-2-8.49,4.88-5.54-10.55,5.18-27.09,47.63-48.44,73-49.38,10.53-.39,29.02,7.67,33.78,7.18.97-.1,15.1-15.27,12.15-1.14-.84,4.03-5.63,3.77-5.17,4.8,6.35,14.09,21.89-10.3,24.03.04,1.21,5.85-12.86,9.06-12.01,14.98,7.72,4.54,24.11-14.49,24.11-2.98,0,6.28-10.52,8.4-14.65,10.93-3.73,2.28-1.77,8.79-11.46,4.08,2.45,15.89-7.04,25.08-16.04,36.05-32.17,26.77-68.6-19.94-49.37-51.77-19.77.62-37.2,18.94-47.28,36.09l-5.55,1.66Z"/>
  <path class="cls-13" d="M550.39,790.65c14.96-.95,69.62.58,61.64,25.53-5.33,16.68-37.58,7.99-50.13,7.84-27.48-.33-44.48-1.24-69.93,10.39-10.61,4.85-26.14,18.63-33.27,20.87-18.03,5.65-7.82-12.74-2.03-20.09,20.62-26.15,61.16-42.47,93.71-44.53Z"/>
  <path class="cls-1" d="M852.97,744.57c21.5-1.83,42.36,1.89,61.89,11.05,6.11,2.87,34.91,18.73,20.62,25.47-6.27,2.96-31.39-7.78-41.28-8.82-21.03-2.22-42.6,2.5-62.42,9.23-12.38,4.2-60.72,33.11-59.6,3.51.49-13,30.9-26.85,42.06-31.05,12.33-4.65,25.54-8.25,38.72-9.37Z"/>
  <path class="cls-15" d="M488.68,934.28c.45-10.02,17.39-27.92,25.39-33.71,13.26-9.59,26.92-12.18,42.73-14.35-9.61,13.47-15.61,24.1-10.46,41.49,4.82,16.27,24.32,25.67,40.52,22.6,4.23,2.13-4.91,6.63-5.91,7.11-21.37,10.26-46.31,11.51-68.24,1.9-7.56-3.31-24.43-16.45-24.04-25.04Z"/>
  <path class="cls-2" d="M809.29,884.2c13.3-24.33,33.11-42.77,62.12-44.05-26.62,30.03,1.27,76.2,40.08,58.07-.2.24,2.86.48-2.06,4.82-25.22,22.29-74.18,21.07-94.99-6.96-2.49-3.36-4.6-11.53-5.15-11.89Z"/>
  <path class="cls-5" d="M707.1,886.2l5.81,3.41c9.07,21.67,19.51,42.56,31.31,62.68,6.31,13.44,12.38,32.28-1.39,43.26-8.39,3.8-14.29,9.42-17.7,16.85-15.85.8-26-1.72-21.61-20.62,2.81-12.07,24.19-13.65,25.35-18.65-3.14-18.08-32.55-68.32-27.52-83.7,1.18-3.6,5-2.6,5.73-3.23Z"/>
  <path class="cls-3" d="M707.1,886.2c3.94-3.4,6.14-8.65,12.14-2.6l41.83,85.84c4.15,21.75-14.92,41.89-35.94,42.95-6.16-14.39,15.69-14.59,20.53-26.55,7.58-18.75-15.74-49.7-24.29-66.84-5.09-10.19-9.68-22.26-14.27-32.81Z"/>
</svg>