<?xml version="1.0" encoding="UTF-8"?>
<svg id="Layer_2" data-name="Layer 2" xmlns="http://www.w3.org/2000/svg" viewBox="0 0 1587 2245">
  <defs>
    <style>
      .cls-1 {
        fill: #090605;
      }

      .cls-2 {
        fill: #010101;
      }

      .cls-3 {
        fill: #fc9a79;
      }

      .cls-4 {
        fill: #5469ad;
      }

      .cls-5 {
        fill: #fd8c7b;
      }

      .cls-6 {
        fill: #48332f;
      }

      .cls-7 {
        fill: #fc9e80;
      }

      .cls-8 {
        fill: #fc9e7f;
      }

      .cls-9 {
        fill: #030201;
      }

      .cls-10 {
        fill: #fdfdfc;
      }

      .cls-11 {
        fill: #fcbaa1;
      }

      .cls-12 {
        fill: #fdb99f;
      }

      .cls-13 {
        fill: #556baf;
      }

      .cls-14 {
        fill: #040302;
      }

      .cls-15 {
        fill: #fc8b7a;
      }

      .cls-16 {
        fill: #020101;
      }

      .cls-17 {
        fill: #fb9c7d;
      }

      .cls-18 {
        fill: #fdb89f;
      }

      .cls-19 {
        fill: #fc8b7b;
      }

      .cls-20 {
        fill: #fc9d80;
      }

      .cls-21 {
        fill: #030202;
      }
    </style>
  </defs>
  <path class="cls-6" d="M330.87,1396.92c21.72-29.85,50.25-54.08,76.55-79.79-28.76-78.14-47.8-160.48-53.3-243.93-10.55-160.26,33.58-392.39,143.58-514.97,104.78-116.76,288.58-174.15,437.84-114.7,6.68,2.66,17,10,22.91,11.21,7.9,1.62,25.06-2.06,35.55-1.48,191.96,10.65,254.05,266.42,288.86,418.02,23.42,101.99,43.45,208.88,38.73,313.79,143.04,26.01,251.42,165.72,265.41,306.92-2.82-.52-13.33.81-14.28-.1s-3.6-22.52-4.56-26.83c-19.73-88.61-67.09-166.36-141.38-219.23-26.29-18.71-70.26-42.61-102.7-44.47-5.22-.3-2.08,8.09-2.5,10.61,130.15,28.43,221.3,153.41,242.08,280.01-11.34.18-22.76-.23-34.1,0l-3.34-4.24c2.33-36.59-22.59-66.61-60.47-64.19l-4.38-3.32-4.88-2.78c-8.81-20.8-21.12-40.73-35.12-58.33-2.65-3.34-23.23-28.98-22.55-16.17,23.8,21.96,41.11,50.92,53.58,79.08.08,5.18-4.69,6.35-7.18,1.79l-5.07-1.72c-19.85-34.69-70.98-46.8-100.51-18.24l-3.88-1.57c-.83,6.03-5.13,6.08-5.38,0l-5.1-.26c-59.89-47.36-108.64,30.14-106.41,86.51l-3.33,3.44h-1.79l-16.13-3.27-95.6-42.84c-4.27,2.49-8.12,5.62-11.54,9.39l-4.13-.95c-1.51.4-3.02.73-4.54.83-6.41.4-69.5-25.32-77.27-35.32-6.84-8.8-13.04-70.45-13.06-84.34l3.36-3.15c-5.72-4.47-6.24-17.76-1.79-23.32l5.69-7.04c74.36-39.08,115.48-110.65,141.01-185.31l4.67-1.74c50.65,11.48,68.02-46.35,73.22-85.91,5.11-38.95-2.02-59-44.74-45.84-4.51.28-7.41-.24-7.51-5.23-6.17-140.7-158.47-182.34-271.63-210.23-30.45-9.03-60.51-20.83-85.83-40.42,26.11,30.56,62.17,47.25,97.62,62.16,9.32,26-22.89,13.9-36.04,7.9-67.23-30.69-118.59-84.9-124.89-161.03-61.51,10.19-116.62,54.97-160.61,97.81-48.75,47.48-97.41,105.77-106.06,175.02l-6.26.19c-50.67-16.74-46.17,58.03-38.56,88.26,7.39,29.39,19.71,39.94,48.51,49.5,8.79,111.96,69.43,218.89,171.9,269.59l5.74,6.68,2.73,4.84c-1.38,13.04-1.63,26.14-.76,39.28-2.53,3.33-3.79,7.76-3.77,13.28,5.13,2.75,2.36,19.46.91,25.44-3.64,15.03-8.28,18.25-21.33,26.03-14.35,8.56-39.03,19.59-55,24.48l-3.54-2.4c-2.66,4.39-7.15,2.41-13.49-5.93l-3.87-1.12-84.11,40.74-18.76,3.99h-23.33l-3.65-3.31c-.68-13.82-3.31-27.57-7.57-40.73l2.25-4.39v-6.89s17.01-31.39,17.01-31.39c38.44-61.38-15.25,8-19.91,22.18l-4.28-.05-4.94-1.28c-16.32-26.58-48.41-41.12-77.99-27.64l-5-1.57Z"/>
  <path class="cls-12" d="M994.82,1332.34c1,13.73,6.27,77.67,12.49,85.28,3.66,4.48,27.98,15.92,34.74,19.08,14.32,6.7,29.54,11.94,44.28,17.62l-1.11,6.24c-8.28,10.51-20.46,24.84-31.19,31.43h-448.62l-4.87-1.75c-4.7-4.54-19.06-21.8-22.55-27.19-2.21-3.41-3.59-6.31.5-8.73,17.75-7.63,59.98-22.42,71.88-36.67,6.09-7.29,5.41-26.75,7.07-36.88l1.75-14.85c44.84,19.87,90.82,24.47,140.41,20.14,67.86-5.93,120.37-26.63,183.16-52,3.79-1.53,7.99-1.66,12.03-1.72Z"/>
  <path class="cls-18" d="M1330.38,1402.3c.96,1.06,1.86,2.57,1.18,3.59-18.44,27.7-27.19,41.36-31.69,76.94-.76,5.97-3.37,35.22,5.31,31.7-5.41-36.6,3-75.62,27.83-104.34-1.28-4.17-.36-6.8,2.76-7.89,7.6-5.54,10.52-10.29,21.13-13.86,34.85-11.72,71.54,3.34,88.33,35.39l-.42,4.16c-24.99,17.76-42.1,55.48-40.99,85.93.75,20.47,6.33-22.37,6.6-24.64,6.18-29.79,23.46-49.11,45.57-67.25-1.4-5.04,2.44-6.15,5.38-1.79,45.17-3.92,71.67,28.21,68.19,71.76-7.74.16-15.73-.9-23.36.86-13.37,34.35-44.16,71.54-84.88,50.84-5.37-2.73-10.26-6.77-12.87-12.23-24.09,36.52-78.54,36.66-100.5-1.77-27.91,31.29-73.34,19.91-87.37-18.53-1.59-4.37-4.61-14.98-5.05-19.17-2.97-28.65,13.26-75.44,36.04-94.03,23.54-19.2,58.57-19.28,78.8,4.33Z"/>
  <path class="cls-18" d="M316.51,1409.48c2.94,4.52,3.54,4.52,1.79,0,3.18-4.15,7.96-10.18,12.56-12.56,34.14-17.63,70.22-.79,87.93,30.5,6.98-.73,9.45,10.29,7.18,16.14,5.08,13.6,8.98,33.94,8.97,48.43-.03,48.83-53.15,80.65-88.83,41.29-24.83,35.69-77.37,39.74-102.28,1.79-37.79,40.99-88.2.68-97.8-43.09h-30.51c3.37-47.64,38.71-82.74,87.93-68.17q.97,3.38,0,0c21.29-28.55,58.97-45.19,93.31-29.59,7.96,3.62,13,10.21,19.75,15.24Z"/>
  <path class="cls-4" d="M1213.74,1492h-159.71c-.04-3.51,2.42-4.99,4.45-7.2,8.99-9.78,18.67-21.4,27.85-30.47,3.53-3.49,12.26-12.56,16.18-11.89l111.23,49.56Z"/>
  <path class="cls-13" d="M578.5,1454.33c.48.54.75,4.79,2.74,7.08,8.36,9.56,18.23,19.35,24.17,30.59h-147.15c34.99-13.59,67.26-33.43,101.86-48.14,6.11-1.67,9.95,4.78,13.91,8.72,1.37,1.37,4.22,1.46,4.47,1.74Z"/>
  <path class="cls-8" d="M316.51,1409.48c.38.29,1.4-.28,1.79,0,29.11,21.03,39.4,68.43,35.89,103.14-.53,5.23-1.5,12.45-8.05,11.78-7.49-.76-2.76-8.5-2.62-13.5.78-29.63-3.19-51.6-17.73-77.51-4.94-8.81-14.57-13.44-9.28-23.91Z"/>
  <path class="cls-11" d="M659.25,1323.37c-105.85-48.07-173.4-160.01-180.27-274.54-22.5-6.39-36.82-14.35-45.43-37.11-12.77-33.77-19.8-129.35,42.65-104.53,1.07-28.32,11.33-53.7,25.48-77.69,41.23-69.94,147.22-174.84,227.53-194.11,6.45-1.55,13.1-3.04,19.76-2.68.1,74.81,64.04,141.84,131.86,165.07,6.81,2.33,19.58,8.82,23.42-.1,3.76-8.73-16.53-11.49-21.92-13.95-37.95-17.34-70.28-39.87-93.51-75.14-1.24-1.88-5.68-5.58-3.07-7.69,47.83,57.94,127.18,65.8,194.7,87,92.73,29.12,186.75,83.33,188.43,192.83,29.31-10.3,55.08-7.43,53.8,29.59-1.36,39.29-15.55,108.86-65.67,110.16-3.58.09-12.64-3.34-14.87-1.4-1.92,1.67-14.62,40.48-17.82,47.64-27.16,60.68-71.37,112-131.31,142.3-.81,1.43-1.67,2.81-2.73,4.03-8.24,9.48-54.77,23.11-69.71,27.12-61.45,16.47-128.85,20.47-191.47,8.59-14.74-2.79-58.24-12.4-66.92-21.46-1.12-1.17-2.06-2.52-2.94-3.93Z"/>
  <path class="cls-3" d="M993.02,1309.02c1.33,7.71,1.22,15.52,1.79,23.32-40.17,19.36-81.99,35.55-125.59,45.77-53.81,12.62-116.44,19.39-170.49,5.35-12.83-3.33-27.2-8.56-38.6-15.23.08,4.33-2.13,9.17-2.68,12.55,1.06-18.85-2.25-39.04,1.79-57.4,99.15,45.02,237.51,34.32,333.77-14.35Z"/>
  <path class="cls-16" d="M803.89,631.08c8.84-2.94,10.75,13.36,14.1,19.66,52,97.68,340.12,89.38,356.08,223.46.73,6.12,2.71,27.67-6.09,27.66-8.32,0-6.69-25.47-8.93-34.17-20.98-81.37-176.9-111.82-245.91-138.06-34.52-13.12-74.33-30.56-97.73-60.17-4.38-5.55-22.05-34.88-11.52-38.38Z"/>
  <path class="cls-9" d="M380.49,878.73c4.59-1.2,6.16,1.9,6.08,5.94-15.81,128.52-5.27,252.34,31.33,375.91,3.07,10.35,12.18,30.12,13.17,39.04.76,6.86-8.29,11.13-11.93,4.56-15.29-42.13-27.24-85.28-35.68-129.37-12.83-67.08-19.93-137.33-16.79-205.81,1.11-24.2,4.37-60.69,9.12-84.17.52-2.59,2.03-5.41,4.7-6.11Z"/>
  <path class="cls-16" d="M651.71,590.21c9.17-.8,20.94-1.31,30.03-.6,4.83.37,17.29,1.48,18.59,6.68-.68,11.9-9.78,5.97-16.79,5.85-21.62-.37-35.83-.02-56.59,6.37-81.18,24.99-128.69,108.91-151.61,185.68-2.31,2.78-6.92,2.29-10,.98-4.05-2.74,3.36-24.09,5.02-29.28,25.02-78.17,93.47-168.06,181.35-175.69Z"/>
  <path class="cls-20" d="M1335.77,1402.3l.96,8.9c-17.4,18.78-28.13,49.1-29.74,74.45-.39,6.18,2.24,28.58,1.72,30.3-1.27,4.14-8.12,4.57-10.25-.1-9.08-19.85,3.31-67.18,13.01-86.72,2.37-4.77,15.32-25.07,18.92-26.83.24-.12,2.67,1.98,5.38,0Z"/>
  <path class="cls-21" d="M1461.38,1420.24c-2.17.19-3.92,1.54-5.38,1.79-1.04,3.44-2.65,3.42-3.59,0-8.34-3.26-11.41-16.85-15.84-24.52-11.13-19.28-24.61-37.14-40.68-52.63-2.86-7.21.68-10.64,7.99-8,11.79,4.26,38.37,44.85,45.24,57.05,4.59,8.15,9.1,17.5,12.25,26.32Z"/>
  <path class="cls-7" d="M1456,1422.04c3.01,8.28-11.48,13.94-17.09,19.69-14.52,14.88-23.6,38.6-27.31,58.8-1.01,5.5,1.6,20.74-5.16,21.86-12.79,2.12-2.52-38.31-.25-45.2,5.38-16.34,22.71-46.61,39.05-53.35.34-.14,5.64-1.41,7.18-1.79,1.01-.25,2.46.19,3.59,0Z"/>
  <path class="cls-21" d="M780.71,475.05c4.33-1.09,8.24,3.39,7.66,7.63l-14.74,76.93c-3.5,8.79-12.29,5.39-11.98-4.61.39-13,9.67-59.6,13.94-72.36,1.07-3.18,1.44-6.21,5.12-7.59Z"/>
  <path class="cls-21" d="M425.97,1443.56c-1.35-3.62-5.41-13.03-7.18-16.14,5.38-7.53,27.2-48.46,34.99-48.49,15.78-.06-4.98,23.52-7.73,28.2-7.03,11.96-12.64,24.74-20.08,36.43Z"/>
  <path class="cls-7" d="M203.46,1423.83c25.09,7.43,45.07,57.6,46.62,81.64.51,7.86.02,23.04-10.45,14.05-.39-24.23-7.76-51.29-22.86-70.42-3.64-4.6-15.23-13.73-16.58-17.61-2.13-6.13,1.56-5.36,3.27-7.65Z"/>
  <path class="cls-5" d="M612.23,1013.58c27.06-2.03,68.27,9.97,80.22,37.12,30.24,68.69-106.05,83.93-126.6,24.31-12.78-37.08,10.95-58.78,46.38-61.43Z"/>
  <path class="cls-19" d="M958.5,1036.82c34.47-4.66,79.82,5.68,75.77,48.85-3.93,42.02-61.87,54.47-96.01,42.21-65.02-23.34-34.4-83.66,20.24-91.06Z"/>
  <path class="cls-10" d="M858.44,1167.3c-.67,1.09-1.38,2.14-2.26,3.01-13.01,12.9-122.45,6.64-146.17-.73l-5.89-4.07c-.68-.98-3.47-2.12-5.08-4.73-4.44-7.2-15.35-24.74.69-25.67,11.62-.68,36.8,7.14,50.38,8.65,23.42,2.62,49.77,2.09,73.32.2,9.75-.79,52.72-13.5,50.89,4.04-.92,8.81-7.3,17.13-15.87,19.31Z"/>
  <path class="cls-15" d="M858.44,1167.3c8.66-.89,5.39,2.33,2.5,6.98-18.26,29.35-56.46,47.53-90.53,40.66-30.88-6.23-49.45-25.25-66.3-49.43,10.66.64,21.09,3.88,31.63,5.15,36.76,4.42,86.79,5.76,122.69-3.36Z"/>
  <path class="cls-2" d="M639.15,846.74c17.44-1.24,37.99,1.5,54.6,7.14,8.21,2.78,31.99,13.29,33.67,21.99,2.61,13.55-7.71,16.03-18.79,15.18-30.13-2.3-51.76-19.12-88.02-16.2-11.98.96-44.35,14.22-49.9,12.37-13.54-4.51,15.15-23.63,19.81-26.31,14.77-8.48,31.59-12.95,48.64-14.16Z"/>
  <path class="cls-16" d="M1034.05,919.51c-6.42,4.04-25.09-8.66-32.08-11.39-15.26-5.95-34.62-10.43-51.07-9.89-15.73.52-61.9,15.47-72.65,6.21-16.64-14.32,18.98-26.39,28.26-29.03,39.39-11.19,79.57-5.61,112.23,19.53,4.08,3.14,23.27,19.56,15.31,24.57Z"/>
  <path class="cls-21" d="M1005.58,969.99c1.46,1.5-1.11,5.62-2.54,7.31-2.99,3.53-9.98,3.06-3.78,7.15,7.16,4.71,21.04-7.83,22.47-.99,1.07,5.11-10.39,7.7-13.48,9.83-5.25,6.79,17.8-.18,19.38-.43s3.58-2.31,4.86,1.36c2.79,7.96-15.3,7.42-18.59,9.67-1.95,1.34-.85,6.11-4,7.24-7.2,2.59-9.87-7.01-14.11-10.73-19.75-17.37-47.6-19.98-72.4-13.02-7.72,2.17-28.43,15.82-30.52,1.04-2.65-18.69,38.9-26.26,52.63-25.75,5.21.19,12.31,1.3,17.42,2.43,6.54,1.44,25.91,11.4,27.39,11.43,3.5.06,12.8-9.06,15.27-6.54Z"/>
  <path class="cls-14" d="M575.11,975.1c-.89-1.49.55-5.1-.43-6.63-.63-.99-24-6.48-17.7-12.84,2.39-2.41,22.02,11.9,25.11,1.8-3.95,1.25-13.21-6.63-12.55-9.86,1.35-6.59,7.59.86,9.12,1.6,6.68,3.26,9.3,5.21,15.99,1.04-1.17-2.38-12.88-8.49-8.95-12.52,2.65-2.71,10.55,6.78,15.33,7.1,6,.4,17.15-4.79,24.97-5.38,15.82-1.19,68.91,9.5,69.01,29.65.11,20.59-28.84-1.25-35.33-3.99-18.58-7.85-42.12-8.73-60.85-.8-5.55,2.35-20.65,15.95-23.71,10.82Z"/>
  <path class="cls-17" d="M792.04,1081.2c-14.24-6.37-23.1-15.76-26.6-28.14,9.89-27.62,19.05-55.44,27.49-83.45l4.5-5.01c7.05,1.32,9.52-.83,10.14,9.54l-19.17,72.09c.96,8.12,22.95,5.84,21.75,25.13-.74,11.83-11,9.37-18.1,9.84Z"/>
  <path class="cls-1" d="M797.43,964.6c-4.51,30.5-20.65,58.89-28.47,88.79-.04,6.35,5.89,12.44,10.64,16.04,4.74,3.6,13.59,3.58,12.45,11.77-3.39.23-5.2,2.64-11.23,1.42-12.52-2.52-23.41-16.63-22.97-29.25.36-10.56,22.73-73.99,28.45-84.64,4.27-7.96,5.04-5.27,11.13-4.13Z"/>
</svg>